# Made in Blockbench 4.6.4
mtllib Bell.mtl

o cube
v 0.015625 0.171875 0.015625
v 0.015625 0.171875 -0.015625
v 0.015625 0.140625 0.015625
v 0.015625 0.140625 -0.015625
v -0.015625 0.171875 0.015625
v -0.015625 0.171875 -0.015625
v -0.015625 0.140625 0.015625
v -0.015625 0.140625 -0.015625
vt 0.5 0.5
vt 0.4375 0.5
vt 0.4375 0.4375
vt 0.5 0.4375
vt 0.5625 0.4375
vt 0.5625 0.5
vt 0.5 0.5
vt 0.5 0.4375
vt 0.0625 0.375
vt 0.125 0.375
vt 0.125 0.4375
vt 0.0625 0.4375
vt 0.1875 0.375
vt 0.1875 0.4375
vt 0.125 0.4375
vt 0.125 0.375
vt 0.25 0.375
vt 0.25 0.4375
vt 0.1875 0.4375
vt 0.1875 0.375
vt 0.3125 0.4375
vt 0.25 0.4375
vt 0.25 0.375
vt 0.3125 0.375
vn 1 0 0
vn -1 0 0
vn 0 1 0
vn 0 -1 0
vn 0 0 1
vn 0 0 -1
usemtl m_c04eecb9-beb8-1224-cb1e-2d9854f2e5d5
f 2/1/1 1/2/1 3/3/1 4/4/1
f 7/5/2 5/6/2 6/7/2 8/8/2
f 5/9/3 1/10/3 2/11/3 6/12/3
f 4/13/4 3/14/4 7/15/4 8/16/4
f 3/17/5 1/18/5 5/19/5 7/20/5
f 6/21/6 2/22/6 4/23/6 8/24/6
o cube
v 0.125 0.03125 0.125
v 0.125 0.03125 -0.125
v 0.125 0 0.125
v 0.125 0 -0.125
v -0.125 0.03125 0.125
v -0.125 0.03125 -0.125
v -0.125 0 0.125
v -0.125 0 -0.125
vt 0.5 0.75
vt 0.25 0.75
vt 0.25 0.6875
vt 0.5 0.6875
vt 0.5 0.625
vt 0.5 0.6875
vt 0.25 0.6875
vt 0.25 0.625
vt 0 0.75
vt 0.25 0.75
vt 0.25 1
vt 0 1
vt 0.25 0.5
vt 0.25 0.75
vt 0 0.75
vt 0 0.5
vt 0.625 0.9375
vt 0.625 1
vt 0.375 1
vt 0.375 0.9375
vt 0.625 0.9375
vt 0.375 0.9375
vt 0.375 0.875
vt 0.625 0.875
vn 1 0 0
vn -1 0 0
vn 0 1 0
vn 0 -1 0
vn 0 0 1
vn 0 0 -1
usemtl m_c04eecb9-beb8-1224-cb1e-2d9854f2e5d5
f 10/25/7 9/26/7 11/27/7 12/28/7
f 15/29/8 13/30/8 14/31/8 16/32/8
f 13/33/9 9/34/9 10/35/9 14/36/9
f 12/37/10 11/38/10 15/39/10 16/40/10
f 11/41/11 9/42/11 13/43/11 15/44/11
f 14/45/12 10/46/12 12/47/12 16/48/12
o cube
v 0.109375 0.11079545454545453 0.0546875
v -0.109375 0.11079545454545453 0.0546875
v -0.109375 0.03125 0.0546875
v 0.109375 0.03125 0.0546875
v -0.109375 0.11079545454545453 -0.0546875
v 0.109375 0.11079545454545453 -0.0546875
v 0.109375 0.03125 -0.0546875
v -0.109375 0.03125 -0.0546875
v -0.0546875 0.140625 -0.0546875
v -0.0546875 0.140625 0.0546875
v -0.0546875 0.11079545454545453 0.109375
v -0.0546875 0.03125 0.109375
v -0.0546875 0.03125 0.0546875
v -0.0546875 0.03125 -0.0546875
v -0.0546875 0.03125 -0.109375
v -0.0546875 0.11079545454545453 -0.109375
v 0.0546875 0.140625 -0.0546875
v 0.0546875 0.140625 0.0546875
v 0.0546875 0.11079545454545453 0.109375
v 0.0546875 0.03125 0.109375
v 0.0546875 0.03125 0.0546875
v 0.0546875 0.03125 -0.0546875
v 0.0546875 0.03125 -0.109375
v 0.0546875 0.11079545454545453 -0.109375
vt 0.375 0.8125
vt 0.5 0.8125
vt 0.5 0.875
vt 0.375 0.875
vt 0.5 0.8125
vt 0.375 0.8125
vt 0.375 0.75
vt 0.5 0.75
vt 0.3125 0.4375
vt 0.3125 0.5
vt 0.1875 0.5
vt 0.1875 0.4375
vt 0.25 0.5
vt 0.3125 0.5
vt 0.3125 0.625
vt 0.25 0.625
vt 0.25 0.875
vt 0.375 0.875
vt 0.375 1
vt 0.25 1
vt 0.0625 0.4375
vt 0.1875 0.4375
vt 0.1875 0.5
vt 0.0625 0.5
vt 0.3125 0.5625
vt 0.4375 0.5625
vt 0.4375 0.625
vt 0.3125 0.625
vt 0.3125 0.5
vt 0.4375 0.5
vt 0.4375 0.5625
vt 0.3125 0.5625
vt 0.25 0.75
vt 0.375 0.75
vt 0.375 0.875
vt 0.25 0.875
vt 0.4375 0.5625
vt 0.5625 0.5625
vt 0.5625 0.625
vt 0.4375 0.625
vt 0.5625 0.5625
vt 0.4375 0.5625
vt 0.4375 0.5
vt 0.5625 0.5
vt 0.625 0.875
vt 0.5 0.875
vt 0.5 0.8125
vt 0.625 0.8125
vt 0.625 0.75
vt 0.625 0.8125
vt 0.5 0.8125
vt 0.5 0.75
vt 0.0625 0.5
vt 0 0.5
vt 0 0.375
vt 0.0625 0.375
vt 0.4921875 0.375
vt 0.4921875 0.4296875
vt 0.4375 0.4296875
vt 0.64883125 0.75
vt 0.6101624999999999 0.7011625
vt 0.6875 0.7011625
vt 0.5 0.6875
vt 0.5625 0.6875
vt 0.5625 0.75
vt 0.5 0.75
vt 0.5625 0.5
vt 0.6171875 0.5
vt 0.6171875 0.5546875
vt 0.3898375 0.3886625
vt 0.35116875000000003 0.4375
vt 0.3125 0.3886625
vt 0.3125 0.5
vt 0.3125 0.4375
vt 0.375 0.4375
vt 0.375 0.5
vt 0.5 0.4296875
vt 0.5 0.375
vt 0.5546875 0.375
vt 0.64883125 0.6875
vt 0.6101624999999999 0.6386625
vt 0.6875 0.6386625
vt 0.5625 0.6875
vt 0.5 0.6875
vt 0.5 0.625
vt 0.5625 0.625
vt 0.5625 0.4921875
vt 0.5625 0.4375
vt 0.6171875 0.4921875
vt 0.4375 0.5
vt 0.375 0.5
vt 0.375 0.4375
vt 0.4375 0.4375
vt 0.6398375000000001 0.5761625
vt 0.60116875 0.625
vt 0.5625 0.5761625
vn 1 0 0
vn -1 0 0
vn -0.4788521306805735 0.8778955729143842 0
vn 0 -1 0
vn 0 1 0
vn 0 0.8778955729143842 0.4788521306805735
vn 0 0 1
vn 0 -1 0
vn 0 -1 0
vn 0 -1 0
vn 0 0 -1
vn 0 0.8778955729143842 -0.4788521306805735
vn 0.4788521306805735 0.8778955729143842 0
vn 0 -1 0
vn 0 -1 0
vn -0.43188945044921684 0.7917973258235639 -0.43188945044921684
vn -0.7071067811865476 0 -0.7071067811865476
vn 0 -1 0
vn -0.43188945044921684 0.7917973258235639 0.43188945044921684
vn -0.7071067811865476 0 0.7071067811865476
vn 0 -1 0
vn 0.43188945044921684 0.7917973258235639 0.43188945044921684
vn 0.7071067811865476 0 0.7071067811865476
vn 0 -1 0
vn 0.7071067811865476 0 -0.7071067811865476
vn 0.43188945044921684 0.7917973258235639 -0.43188945044921684
usemtl m_c04eecb9-beb8-1224-cb1e-2d9854f2e5d5
f 20/49/13 23/50/13 22/51/13 17/52/13
f 18/53/14 21/54/14 24/55/14 19/56/14
f 18/57/15 26/58/15 25/59/15 21/60/15
f 24/61/16 30/62/16 29/63/16 19/64/16
f 26/65/17 34/66/17 33/67/17 25/68/17
f 27/69/18 35/70/18 34/71/18 26/72/18
f 28/73/19 36/74/19 35/75/19 27/76/19
f 29/77/20 37/78/20 36/79/20 28/80/20
f 30/81/21 38/82/21 37/83/21 29/84/21
f 31/85/22 39/86/22 38/87/22 30/88/22
f 32/89/23 40/90/23 39/91/23 31/92/23
f 25/93/24 33/94/24 40/95/24 32/96/24
f 22/97/25 33/98/25 34/99/25 17/100/25
f 20/101/26 37/102/26 38/103/26 23/104/26
f 31/105/27 30/106/27 24/107/27
f 25/108/28 32/109/28 21/110/28
f 31/111/29 24/112/29 21/113/29 32/114/29
f 19/115/30 29/116/30 28/117/30
f 27/118/31 26/119/31 18/120/31
f 18/121/32 19/122/32 28/123/32 27/124/32
f 36/125/33 37/126/33 20/127/33
f 34/128/34 35/129/34 17/130/34
f 17/131/35 35/132/35 36/133/35 20/134/35
f 38/135/36 39/136/36 23/137/36
f 40/138/37 22/139/37 23/140/37 39/141/37
f 40/142/38 33/143/38 22/144/38