# Made in Blockbench 4.6.4
mtllib Bell.mtl

o cube
v 0.125 0.03125 0.125
v 0.125 0.03125 -0.125
v 0.125 0 0.125
v 0.125 0 -0.125
v -0.125 0.03125 0.125
v -0.125 0.03125 -0.125
v -0.125 0 0.125
v -0.125 0 -0.125
vt 0.25 1
vt 0 1
vt 0 0.875
vt 0.25 0.875
vt 0.25 0.875
vt 0.25 1
vt 0 1
vt 0 0.875
vt 0 0.75
vt 0.25 0.75
vt 0.25 1
vt 0 1
vt 0.25 0.75
vt 0.25 1
vt 0 1
vt 0 0.75
vt 0.25 0.875
vt 0.25 1
vt 0 1
vt 0 0.875
vt 0.25 1
vt 0 1
vt 0 0.875
vt 0.25 0.875
vn 1 0 0
vn -1 0 0
vn 0 1 0
vn 0 -1 0
vn 0 0 1
vn 0 0 -1
usemtl none
f 2/1/1 1/2/1 3/3/1 4/4/1
f 7/5/2 5/6/2 6/7/2 8/8/2
f 5/9/3 1/10/3 2/11/3 6/12/3
f 4/13/4 3/14/4 7/15/4 8/16/4
f 3/17/5 1/18/5 5/19/5 7/20/5
f 6/21/6 2/22/6 4/23/6 8/24/6
o cube
v 0.109375 0.11079545454545453 0.0546875
v -0.109375 0.11079545454545453 0.0546875
v -0.109375 0.03125 0.0546875
v 0.109375 0.03125 0.0546875
v -0.109375 0.11079545454545453 -0.0546875
v 0.109375 0.11079545454545453 -0.0546875
v 0.109375 0.03125 -0.0546875
v -0.109375 0.03125 -0.0546875
v -0.0546875 0.140625 -0.0546875
v -0.0546875 0.140625 0.0546875
v -0.0546875 0.11079545454545453 0.109375
v -0.0546875 0.03125 0.109375
v -0.0546875 0.03125 0.0546875
v -0.0546875 0.03125 -0.0546875
v -0.0546875 0.03125 -0.109375
v -0.0546875 0.11079545454545453 -0.109375
v 0.0546875 0.140625 -0.0546875
v 0.0546875 0.140625 0.0546875
v 0.0546875 0.11079545454545453 0.109375
v 0.0546875 0.03125 0.109375
v 0.0546875 0.03125 0.0546875
v 0.0546875 0.03125 -0.0546875
v 0.0546875 0.03125 -0.109375
v 0.0546875 0.11079545454545453 -0.109375
vt 0.0625 0.875
vt 0.0625 0.875
vt 0.0625 1
vt 0.0625 1
vt 0.1875 1
vt 0.1875 1
vt 0.1875 0.875
vt 0.1875 0.875
vt 0 0.8125
vt 0.125 0.8125
vt 0.125 0.8125
vt 0 0.8125
vt 0 0.9375
vt 0.125 0.9375
vt 0.125 0.9375
vt 0 0.9375
vt 0.125 0.8125
vt 0.1875 0.8125
vt 0.1875 0.8125
vt 0.125 0.8125
vt 0.125 0.75
vt 0.1875 0.75
vt 0.1875 0.8125
vt 0.125 0.8125
vt 0.125 0.875
vt 0.1875 0.875
vt 0.1875 1
vt 0.125 1
vt 0.125 0.9375
vt 0.1875 0.9375
vt 0.1875 1
vt 0.125 1
vt 0.125 0.9375
vt 0.1875 0.9375
vt 0.1875 0.9375
vt 0.125 0.9375
vt 0.125 0.75
vt 0.1875 0.75
vt 0.1875 0.9375
vt 0.125 0.9375
vt 0.125 1
vt 0.0625 1
vt 0.0625 0.875
vt 0.125 0.875
vt 0.125 0.8125
vt 0.1875 0.8125
vt 0.1875 1
vt 0.125 1
vt 0.25 0.8125
vt 0.1875 0.8125
vt 0.1875 0.8125
vt 0.25 0.8125
vt 0.25 0.9375
vt 0.1875 0.9375
vt 0.1875 0.9375
vt 0.25 0.9375
vt 0.0625 0.9375
vt 0.0625 1
vt 0 1
vt 0.0625 0.9375
vt 0.0625 1
vt 0 0.9375
vt 0 0.875
vt 0.0883875 0.875
vt 0.0883875 1
vt 0 1
vt 0 0.9375
vt 0.0625 0.9375
vt 0.0625 1
vt 0.0625 0.9375
vt 0.0625 1
vt 0 1
vt 0 1
vt 0 0.875
vt 0.0883875 0.875
vt 0.0883875 1
vt 0 1
vt 0 0.9375
vt 0.0625 0.9375
vt 0 1
vt 0 0.9375
vt 0.0625 1
vt 0.0883875 1
vt 0 1
vt 0 0.875
vt 0.0883875 0.875
vt 0 1
vt 0 0.9375
vt 0.0625 1
vt 0.0883875 1
vt 0 1
vt 0 0.875
vt 0.0883875 0.875
vt 0 1
vt 0 0.9375
vt 0.0625 0.9375
vn 1 0 0
vn -1 0 0
vn -0.4788521306805735 0.8778955729143842 0
vn 0 -1 0
vn 0 1 0
vn 0 0.8778955729143842 0.4788521306805735
vn 0 0 1
vn 0 -1 0
vn 0 -1 0
vn 0 -1 0
vn 0 0 -1
vn 0 0.8778955729143842 -0.4788521306805735
vn 0.4788521306805735 0.8778955729143842 0
vn 0 -1 0
vn 0 -1 0
vn -0.43188945044921684 0.7917973258235639 -0.43188945044921684
vn -0.7071067811865476 0 -0.7071067811865476
vn 0 -1 0
vn -0.43188945044921684 0.7917973258235639 0.43188945044921684
vn -0.7071067811865476 0 0.7071067811865476
vn 0 -1 0
vn 0.43188945044921684 0.7917973258235639 0.43188945044921684
vn 0.7071067811865476 0 0.7071067811865476
vn 0 -1 0
vn 0.7071067811865476 0 -0.7071067811865476
vn 0.43188945044921684 0.7917973258235639 -0.43188945044921684
usemtl none
f 12/25/7 15/26/7 14/27/7 9/28/7
f 10/29/8 13/30/8 16/31/8 11/32/8
f 10/33/9 18/34/9 17/35/9 13/36/9
f 16/37/10 22/38/10 21/39/10 11/40/10
f 18/41/11 26/42/11 25/43/11 17/44/11
f 19/45/12 27/46/12 26/47/12 18/48/12
f 20/49/13 28/50/13 27/51/13 19/52/13
f 21/53/14 29/54/14 28/55/14 20/56/14
f 22/57/15 30/58/15 29/59/15 21/60/15
f 23/61/16 31/62/16 30/63/16 22/64/16
f 24/65/17 32/66/17 31/67/17 23/68/17
f 17/69/18 25/70/18 32/71/18 24/72/18
f 14/73/19 25/74/19 26/75/19 9/76/19
f 12/77/20 29/78/20 30/79/20 15/80/20
f 23/81/21 22/82/21 16/83/21
f 17/84/22 24/85/22 13/86/22
f 23/87/23 16/88/23 13/89/23 24/90/23
f 11/91/24 21/92/24 20/93/24
f 19/94/25 18/95/25 10/96/25
f 10/97/26 11/98/26 20/99/26 19/100/26
f 28/101/27 29/102/27 12/103/27
f 26/104/28 27/105/28 9/106/28
f 9/107/29 27/108/29 28/109/29 12/110/29
f 30/111/30 31/112/30 15/113/30
f 32/114/31 14/115/31 15/116/31 31/117/31
f 32/118/32 25/119/32 14/120/32
o cube
v 0.015625 0.171875 0.015625
v 0.015625 0.171875 -0.015625
v 0.015625 0.140625 0.015625
v 0.015625 0.140625 -0.015625
v -0.015625 0.171875 0.015625
v -0.015625 0.171875 -0.015625
v -0.015625 0.140625 0.015625
v -0.015625 0.140625 -0.015625
vt 0.25 1
vt 0 1
vt 0 0.875
vt 0.25 0.875
vt 0.25 0.875
vt 0.25 1
vt 0 1
vt 0 0.875
vt 0 0.75
vt 0.25 0.75
vt 0.25 1
vt 0 1
vt 0.25 0.75
vt 0.25 1
vt 0 1
vt 0 0.75
vt 0.25 0.875
vt 0.25 1
vt 0 1
vt 0 0.875
vt 0.25 1
vt 0 1
vt 0 0.875
vt 0.25 0.875
vn 1 0 0
vn -1 0 0
vn 0 1 0
vn 0 -1 0
vn 0 0 1
vn 0 0 -1
usemtl none
f 34/121/33 33/122/33 35/123/33 36/124/33
f 39/125/34 37/126/34 38/127/34 40/128/34
f 37/129/35 33/130/35 34/131/35 38/132/35
f 36/133/36 35/134/36 39/135/36 40/136/36
f 35/137/37 33/138/37 37/139/37 39/140/37
f 38/141/38 34/142/38 36/143/38 40/144/38