# Made in Blockbench 4.6.4
mtllib BusConsole.mtl

o Button
v -0.25068746525467994 1.299250152235578 -0.28371153020786855
v -0.2509753278814074 1.262956602464787 -0.3345932104095211
v -0.24927532370759525 1.1974884296816333 -0.21113358811038976
v -0.24956318633432276 1.1611948799108422 -0.26201526831204236
v -0.37567816249524877 1.2984347977148807 -0.2824228097874331
v -0.37596602512197624 1.2621412479440897 -0.3333044899890857
v -0.3742660209481641 1.196673075160936 -0.20984486768995436
v -0.37455388357489156 1.160379525390145 -0.26072654789160693
vt 0.40625 0.625
vt 0.390625 0.625
vt 0.390625 0.59375
vt 0.40625 0.59375
vt 0.515625 0.96875
vt 0.515625 1
vt 0.5 1
vt 0.5 0.96875
vt 0.09375 0.609375
vt 0.125 0.609375
vt 0.125 0.625
vt 0.09375 0.625
vt 0.125 0.53125
vt 0.125 0.546875
vt 0.09375 0.546875
vt 0.09375 0.53125
vt 0.40625 0.625
vt 0.40625 0.65625
vt 0.375 0.65625
vt 0.375 0.625
vt 0.4375 0.53125
vt 0.40625 0.53125
vt 0.40625 0.5
vt 0.4375 0.5
vn 0.9999255779245504 0.006522836165577493 -0.010309763363483403
vn -0.9999255779245504 -0.006522836165577493 0.010309763363483403
vn -0.011297132376677618 0.8140937804315578 -0.5806235367798301
vn 0.011297132376677618 -0.8140937804315578 0.5806235367798301
vn 0.0046058020276399814 0.5806967963326575 0.8141068832264413
vn -0.0046058020276399814 -0.5806967963326575 -0.8141068832264413
usemtl m_9956a0e6-95c2-2935-c5fa-3c7c485faf58
f 2/1/1 1/2/1 3/3/1 4/4/1
f 7/5/2 5/6/2 6/7/2 8/8/2
f 5/9/3 1/10/3 2/11/3 6/12/3
f 4/13/4 3/14/4 7/15/4 8/16/4
f 3/17/5 1/18/5 5/19/5 7/20/5
f 6/21/6 2/22/6 4/23/6 8/24/6
o Button
v 0.3742660209481641 1.303326924839064 -0.29015513231004564
v 0.3739781583214366 1.2670333750682727 -0.34103681251169826
v 0.37567816249524877 1.2015652022851193 -0.21757719021256688
v 0.3753902998685213 1.165271652514328 -0.26845887041421945
v 0.24927532370759525 1.3025115703183667 -0.2888664118896102
v 0.24898746108086775 1.2662180205475757 -0.3397480920912628
v 0.25068746525467994 1.200749847764422 -0.21628846979213148
v 0.25039960262795247 1.164456297993631 -0.2671701499937841
vt 0.515625 0.96875
vt 0.5 0.96875
vt 0.5 0.9375
vt 0.515625 0.9375
vt 0.0625 0.46875
vt 0.0625 0.5
vt 0.046875 0.5
vt 0.046875 0.46875
vt 0.0625 0.484375
vt 0.09375 0.484375
vt 0.09375 0.5
vt 0.0625 0.5
vt 0.53125 0.921875
vt 0.53125 0.9375
vt 0.5 0.9375
vt 0.5 0.921875
vt 0.46875 0.5
vt 0.46875 0.53125
vt 0.4375 0.53125
vt 0.4375 0.5
vt 0.5 0.53125
vt 0.46875 0.53125
vt 0.46875 0.5
vt 0.5 0.5
vn 0.9999255779245504 0.006522836165577493 -0.010309763363483403
vn -0.9999255779245504 -0.006522836165577493 0.010309763363483403
vn -0.011297132376677618 0.8140937804315578 -0.5806235367798301
vn 0.011297132376677618 -0.8140937804315578 0.5806235367798301
vn 0.0046058020276399814 0.5806967963326575 0.8141068832264413
vn -0.0046058020276399814 -0.5806967963326575 -0.8141068832264413
usemtl m_9956a0e6-95c2-2935-c5fa-3c7c485faf58
f 10/25/7 9/26/7 11/27/7 12/28/7
f 15/29/8 13/30/8 14/31/8 16/32/8
f 13/33/9 9/34/9 10/35/9 14/36/9
f 12/37/10 11/38/10 15/39/10 16/40/10
f 11/41/11 9/42/11 13/43/11 15/44/11
f 14/45/12 10/46/12 12/47/12 16/48/12
o Shaft
v 0.03125 1.4643724085124337 -0.033485245818031584
v 0.03125 1.2492812448807915 -0.3406672624264035
v 0.03125 1.4131754057443717 0.00236328145390885
v 0.03125 1.1980842421127293 -0.3048187351544631
v -0.03125 1.4643724085124337 -0.033485245818031584
v -0.03125 1.2492812448807915 -0.3406672624264035
v -0.03125 1.4131754057443717 0.00236328145390885
v -0.03125 1.1980842421127293 -0.3048187351544631
vt 0.09375 0.53125
vt 0 0.53125
vt 0 0.515625
vt 0.09375 0.515625
vt 0.1875 0.515625
vt 0.1875 0.53125
vt 0.09375 0.53125
vt 0.09375 0.515625
vt 0.203125 0.453125
vt 0.21875 0.453125
vt 0.21875 0.546875
vt 0.203125 0.546875
vt 0.203125 0.4375
vt 0.203125 0.53125
vt 0.1875 0.53125
vt 0.1875 0.4375
vt 0.265625 0.640625
vt 0.265625 0.65625
vt 0.25 0.65625
vt 0.25 0.640625
vt 0.375 0.65625
vt 0.359375 0.65625
vt 0.359375 0.640625
vt 0.375 0.640625
vn 1 0 0
vn -1 0 0
vn 0 0.8191520442889918 -0.573576436351046
vn 0 -0.8191520442889918 0.573576436351046
vn 0 0.573576436351046 0.8191520442889918
vn 0 -0.573576436351046 -0.8191520442889918
usemtl m_9956a0e6-95c2-2935-c5fa-3c7c485faf58
f 18/49/13 17/50/13 19/51/13 20/52/13
f 23/53/14 21/54/14 22/55/14 24/56/14
f 21/57/15 17/58/15 18/59/15 22/60/15
f 20/61/16 19/62/16 23/63/16 24/64/16
f 19/65/17 17/66/17 21/67/17 23/68/17
f 22/69/18 18/70/18 20/71/18 24/72/18
o cylinder
v 1.9825411154020644e-18 1.447736038946388 -0.00276173149004591
v 1.9825411154020644e-18 1.4298117753104178 -0.028360232874076907
v 0.10825317547305481 1.601327047250574 -0.11030731330586704
v 0.10825317547305481 1.5834027836146038 -0.13590581468989804
v 0.21650635094610965 1.447736038946388 -0.00276173149004591
v 0.21650635094610965 1.4298117753104178 -0.028360232874076907
v 0.10825317547305481 1.2941450306422022 0.10478385032577522
v 0.10825317547305481 1.276220767006232 0.07918534894174423
v -0.10825317547305485 1.2941450306422022 0.10478385032577522
v -0.10825317547305485 1.276220767006232 0.07918534894174423
v -0.21650635094610962 1.447736038946388 -0.00276173149004591
v -0.21650635094610962 1.4298117753104178 -0.028360232874076907
v -0.10825317547305494 1.601327047250574 -0.11030731330586704
v -0.10825317547305494 1.5834027836146038 -0.13590581468989804
vt 0.108253125 0.578125
vt 0.081190625 0.625
vt 0.0541265625 0.578125
vt 0.140625 0.5
vt 0.1875 0.5
vt 0.1875 0.515625
vt 0.140625 0.515625
vt 0.19056562500000002 0.53125
vt 0.217628125 0.578125
vt 0.1635015625 0.578125
vt 0.081190625 0.53125
vt 0.108253125 0.578125
vt 0.0541265625 0.578125
vt 0 0.484375
vt 0.046875 0.484375
vt 0.046875 0.5
vt 0 0.5
vt 0.217628125 0.578125
vt 0.19056562500000002 0.625
vt 0.1635015625 0.578125
vt 0.027062500000000003 0.53125
vt 0.081190625 0.53125
vt 0.0541265625 0.578125
vt 0.203125 0.609375
vt 0.25 0.609375
vt 0.25 0.625
vt 0.203125 0.625
vt 0.19056562500000002 0.625
vt 0.1364375 0.625
vt 0.1635015625 0.578125
vt 0 0.578125
vt 0.027062500000000003 0.53125
vt 0.0541265625 0.578125
vt 0.09375 0.5
vt 0.140625 0.5
vt 0.140625 0.515625
vt 0.09375 0.515625
vt 0.1364375 0.625
vt 0.109375 0.578125
vt 0.1635015625 0.578125
vt 0.027062500000000003 0.625
vt 0 0.578125
vt 0.0541265625 0.578125
vt 0.046875 0.5
vt 0.09375 0.5
vt 0.09375 0.515625
vt 0.046875 0.515625
vt 0.109375 0.578125
vt 0.1364375 0.53125
vt 0.1635015625 0.578125
vt 0.081190625 0.625
vt 0.027062500000000003 0.625
vt 0.0541265625 0.578125
vt 0 0.5
vt 0.046875 0.5
vt 0.046875 0.515625
vt 0 0.515625
vt 0.1364375 0.53125
vt 0.19056562500000002 0.53125
vt 0.1635015625 0.578125
vn 0 0.573576436351046 0.8191520442889918
vn 0.8660254037844385 0.409576022144496 -0.2867882181755231
vn 0 -0.573576436351046 -0.8191520442889918
vn 0 0.573576436351046 0.8191520442889918
vn 0.8660254037844385 -0.409576022144496 0.2867882181755231
vn 0 -0.573576436351046 -0.8191520442889918
vn 0 0.573576436351046 0.8191520442889918
vn 0 -0.8191520442889918 0.573576436351046
vn 0 -0.573576436351046 -0.8191520442889918
vn 0 0.573576436351046 0.8191520442889918
vn -0.8660254037844388 -0.4095760221444959 0.28678821817552297
vn 0 -0.573576436351046 -0.8191520442889918
vn 0 0.573576436351046 0.8191520442889918
vn -0.8660254037844389 0.4095760221444956 -0.2867882181755228
vn 0 -0.573576436351046 -0.8191520442889918
vn 0 0.573576436351046 0.8191520442889918
vn 0 0.8191520442889918 -0.573576436351046
vn 0 -0.573576436351046 -0.8191520442889918
usemtl m_9956a0e6-95c2-2935-c5fa-3c7c485faf58
f 29/73/19 27/74/19 25/75/19
f 27/76/20 29/77/20 30/78/20 28/79/20
f 28/80/21 30/81/21 26/82/21
f 31/83/22 29/84/22 25/85/22
f 29/86/23 31/87/23 32/88/23 30/89/23
f 30/90/24 32/91/24 26/92/24
f 33/93/25 31/94/25 25/95/25
f 31/96/26 33/97/26 34/98/26 32/99/26
f 32/100/27 34/101/27 26/102/27
f 35/103/28 33/104/28 25/105/28
f 33/106/29 35/107/29 36/108/29 34/109/29
f 34/110/30 36/111/30 26/112/30
f 37/113/31 35/114/31 25/115/31
f 35/116/32 37/117/32 38/118/32 36/119/32
f 36/120/33 38/121/33 26/122/33
f 27/123/34 37/124/34 25/125/34
f 37/126/35 27/127/35 28/128/35 38/129/35
f 38/130/36 28/131/36 26/132/36
o RatEar
v -0.390625 1.453125 -0.421875
v -0.390625 1.453125 -0.453125
v -0.390625 1.421875 -0.421875
v -0.390625 1.421875 -0.453125
v -0.421875 1.453125 -0.421875
v -0.421875 1.453125 -0.453125
v -0.421875 1.421875 -0.421875
v -0.421875 1.421875 -0.453125
vt 0.515625 0.859375
vt 0.5 0.859375
vt 0.5 0.84375
vt 0.515625 0.84375
vt 0.171875 0.484375
vt 0.171875 0.5
vt 0.15625 0.5
vt 0.15625 0.484375
vt 0.5 0.828125
vt 0.515625 0.828125
vt 0.515625 0.84375
vt 0.5 0.84375
vt 0.1875 0.484375
vt 0.1875 0.5
vt 0.171875 0.5
vt 0.171875 0.484375
vt 0.515625 0.8125
vt 0.515625 0.828125
vt 0.5 0.828125
vt 0.5 0.8125
vt 0.515625 0.8125
vt 0.5 0.8125
vt 0.5 0.796875
vt 0.515625 0.796875
vn 1 0 0
vn -1 0 0
vn 0 1 0
vn 0 -1 0
vn 0 0 1
vn 0 0 -1
usemtl m_9956a0e6-95c2-2935-c5fa-3c7c485faf58
f 40/133/37 39/134/37 41/135/37 42/136/37
f 45/137/38 43/138/38 44/139/38 46/140/38
f 43/141/39 39/142/39 40/143/39 44/144/39
f 42/145/40 41/146/40 45/147/40 46/148/40
f 41/149/41 39/150/41 43/151/41 45/152/41
f 44/153/42 40/154/42 42/155/42 46/156/42
o Rat
v -0.34375 1.4375 -0.40625
v -0.34375 1.4375 -0.46875
v -0.34375 1.375 -0.40625
v -0.34375 1.375 -0.46875
v -0.40625 1.4375 -0.40625
v -0.40625 1.4375 -0.46875
v -0.40625 1.375 -0.40625
v -0.40625 1.375 -0.46875
vt 0.015625 0.625
vt 0 0.625
vt 0 0.609375
vt 0.015625 0.609375
vt 0.390625 0.609375
vt 0.390625 0.625
vt 0.375 0.625
vt 0.375 0.609375
vt 0.21875 0.59375
vt 0.234375 0.59375
vt 0.234375 0.609375
vt 0.21875 0.609375
vt 0.015625 0.53125
vt 0.015625 0.546875
vt 0 0.546875
vt 0 0.53125
vt 0.515625 0.90625
vt 0.515625 0.921875
vt 0.5 0.921875
vt 0.5 0.90625
vt 0.109375 0.5
vt 0.09375 0.5
vt 0.09375 0.484375
vt 0.109375 0.484375
vn 1 0 0
vn -1 0 0
vn 0 1 0
vn 0 -1 0
vn 0 0 1
vn 0 0 -1
usemtl m_9956a0e6-95c2-2935-c5fa-3c7c485faf58
f 48/157/43 47/158/43 49/159/43 50/160/43
f 53/161/44 51/162/44 52/163/44 54/164/44
f 51/165/45 47/166/45 48/167/45 52/168/45
f 50/169/46 49/170/46 53/171/46 54/172/46
f 49/173/47 47/174/47 51/175/47 53/176/47
f 52/177/48 48/178/48 50/179/48 54/180/48
o RatEar2
v -0.328125 1.453125 -0.421875
v -0.328125 1.453125 -0.453125
v -0.328125 1.421875 -0.421875
v -0.328125 1.421875 -0.453125
v -0.359375 1.453125 -0.421875
v -0.359375 1.453125 -0.453125
v -0.359375 1.421875 -0.421875
v -0.359375 1.421875 -0.453125
vt 0.515625 0.90625
vt 0.5 0.90625
vt 0.5 0.890625
vt 0.515625 0.890625
vt 0.125 0.484375
vt 0.125 0.5
vt 0.109375 0.5
vt 0.109375 0.484375
vt 0.5 0.875
vt 0.515625 0.875
vt 0.515625 0.890625
vt 0.5 0.890625
vt 0.140625 0.484375
vt 0.140625 0.5
vt 0.125 0.5
vt 0.125 0.484375
vt 0.515625 0.859375
vt 0.515625 0.875
vt 0.5 0.875
vt 0.5 0.859375
vt 0.15625 0.5
vt 0.140625 0.5
vt 0.140625 0.484375
vt 0.15625 0.484375
vn 1 0 0
vn -1 0 0
vn 0 1 0
vn 0 -1 0
vn 0 0 1
vn 0 0 -1
usemtl m_9956a0e6-95c2-2935-c5fa-3c7c485faf58
f 56/181/49 55/182/49 57/183/49 58/184/49
f 61/185/50 59/186/50 60/187/50 62/188/50
f 59/189/51 55/190/51 56/191/51 60/192/51
f 58/193/52 57/194/52 61/195/52 62/196/52
f 57/197/53 55/198/53 59/199/53 61/200/53
f 60/201/54 56/202/54 58/203/54 62/204/54
o Console
v 0.5 1.375 -0.5
v 0.5 0 -0.125
v 0.5 0 -0.5
v -0.5 1.375 -0.5
v -0.5 0 -0.125
v -0.5 0 -0.5
v 0.5 1 -0.125
v -0.5 1 -0.125
v -0.5 1 -0.5
v 0.5 1 -0.5
v 0.5 1.375 -0.375
v -0.5 1.375 -0.375
v -0.5 1 -0.375
v -0.5 0 -0.375
v 0.5 0 -0.375
v 0.5 1 -0.375
vt 0.3125 0.65625
vt 0.28125 0.65625
vt 0.28125 0.5625
vt 0.3125 0.5625
vt 0.3125 0.5625
vt 0.34375 0.5625
vt 0.34375 0.65625
vt 0.3125 0.65625
vt 0.40625 0.5625
vt 0.40625 0.53125
vt 0.65625 0.53125
vt 0.65625 0.5625
vt 0.65625 0.5625
vt 0.65625 0.59375
vt 0.40625 0.59375
vt 0.40625 0.5625
vt 0.25 1
vt 0.25 0.90625
vt 0.5 0.90625
vt 0.5 1
vt 0.25 0.640625
vt 0.25 0.890625
vt 0 0.890625
vt 0 0.640625
vt 0.3125 0.3125
vt 0.34375 0.3125
vt 0.34375 0.5625
vt 0.3125 0.5625
vt 0.5 0.65625
vt 0.5 0.90625
vt 0.25 0.90625
vt 0.25 0.65625
vt 0.3125 0.5625
vt 0.28125 0.5625
vt 0.28125 0.3125
vt 0.3125 0.3125
vt 0.40625 0.5625
vt 0.34375 0.5625
vt 0.34375 0.3125
vt 0.40625 0.3125
vt 0.40625 0.65625
vt 0.40625 0.59375
vt 0.65625 0.59375
vt 0.65625 0.65625
vt 0.21875 0.3125
vt 0.28125 0.3125
vt 0.28125 0.5625
vt 0.21875 0.5625
vt 0.28125 0.5625
vt 0.28125 0.65625
vt 0.21875 0.5625
vt 0.34375 0.5625
vt 0.40625 0.5625
vt 0.34375 0.65625
vt 0 1
vt 0 0.890625
vt 0.25 0.890625
vt 0.25 1
vn 1 0 0
vn -1 0 0
vn 0 1 0
vn 0 -1 0
vn 0 0 -1
vn 0 0 1
vn -1 0 0
vn 0 0 -1
vn 1 0 0
vn -1 0 0
vn 0 -1 0
vn 1 0 0
vn 1 0 0
vn -1 0 0
vn 0 0.5547001962252291 0.8320502943378437
usemtl m_9956a0e6-95c2-2935-c5fa-3c7c485faf58
f 63/205/55 73/206/55 78/207/55 72/208/55
f 71/209/56 75/210/56 74/211/56 66/212/56
f 66/213/57 74/214/57 73/215/57 63/216/57
f 65/217/58 77/218/58 76/219/58 68/220/58
f 63/221/59 72/222/59 71/223/59 66/224/59
f 64/225/60 69/226/60 70/227/60 67/228/60
f 68/229/61 76/230/61 75/231/61 71/232/61
f 68/233/62 71/234/62 72/235/62 65/236/62
f 72/237/63 78/238/63 77/239/63 65/240/63
f 70/241/64 75/242/64 76/243/64 67/244/64
f 67/245/65 76/246/65 77/247/65 64/248/65
f 64/249/66 77/250/66 78/251/66 69/252/66
f 78/253/67 73/254/67 69/255/67
f 75/256/68 70/257/68 74/258/68
f 74/259/69 70/260/69 69/261/69 73/262/69