# Made in Blockbench 4.6.4
mtllib BusSeat.mtl

o cube
v 0.5 0.5 0.4375
v 0.5 0.5 -0.4375
v 0.5 0.375 0.4375
v 0.5 0.375 -0.4375
v -0.16666666666666663 0.5 0.4375
v -0.16666666666666663 0.5 -0.4375
v -0.16666666666666663 0.375 0.4375
v -0.16666666666666663 0.375 -0.4375
v 0.5 0.5 -0.2734375
v -0.16666666666666663 0.5 -0.2734375
v -0.16666666666666663 0.375 -0.2734375
v 0.5 0.375 -0.2734375
v 0.5 0.5 0.2734375
v -0.16666666666666663 0.5 0.2734375
v -0.16666666666666663 0.375 0.2734375
v 0.5 0.375 0.2734375
v -0.3125 0.375 -0.2734375
v -0.3125 0.5 0.2734375
v -0.3125 0.375 0.2734375
v -0.3125 0.5 -0.2734375
vt 0.234375 1
vt 0.1875 1
vt 0.1875 0.96875
vt 0.234375 0.96875
vt 0.234375 0.484375
vt 0.28125 0.484375
vt 0.28125 0.515625
vt 0.234375 0.515625
vt 0.0364578125 0.734375
vt 0.0364578125 0.693359375
vt 0.203125 0.693359375
vt 0.203125 0.734375
vt 0.40625 0.515625
vt 0.40625 0.556640625
vt 0.2395828125 0.556640625
vt 0.2395828125 0.515625
vt 0.609375 0.75
vt 0.609375 0.78125
vt 0.4375 0.78125
vt 0.4375 0.75
vt 0.609375 0.75
vt 0.4375 0.75
vt 0.4375 0.71875
vt 0.609375 0.71875
vt 0.03645781249999999 0.693359375
vt 0.03645781249999999 0.556640625
vt 0.203125 0.556640625
vt 0.203125 0.693359375
vt 0.4375 0.6875
vt 0.578125 0.6875
vt 0.578125 0.71875
vt 0.4375 0.71875
vt 0.40625 0.556640625
vt 0.40625 0.693359375
vt 0.2395828125 0.693359375
vt 0.2395828125 0.556640625
vt 0.578125 0.6875
vt 0.4375 0.6875
vt 0.4375 0.65625
vt 0.578125 0.65625
vt 0.203125 0.515625
vt 0.203125 0.556640625
vt 0.03645781249999999 0.556640625
vt 0.03645781249999999 0.515625
vt 0.328125 0.515625
vt 0.28125 0.515625
vt 0.28125 0.484375
vt 0.328125 0.484375
vt 0.2395828125 0.734375
vt 0.2395828125 0.693359375
vt 0.40625 0.693359375
vt 0.40625 0.734375
vt 0.328125 0.484375
vt 0.375 0.484375
vt 0.375 0.515625
vt 0.328125 0.515625
vt 0.203125 0.693359375
vt 0.203125 0.556640625
vt 0.2395828125 0.556640625
vt 0.2395828125 0.693359375
vt 0 0.734375
vt 0 0.703125
vt 0.03125 0.703125
vt 0.03125 0.734375
vt 0 0.693359375
vt 0 0.556640625
vt 0.03645781249999999 0.556640625
vt 0.03645781249999999 0.693359375
vt 0.234375 0.703125
vt 0.234375 0.734375
vt 0.203125 0.734375
vt 0.203125 0.703125
vn 1 0 0
vn -1 0 0
vn 0 1 0
vn 0 -1 0
vn 0 0 1
vn 0 0 -1
vn 0 1 0
vn -1 0 0
vn 0 -1 0
vn 1 0 0
vn 0 1 0
vn -1 0 0
vn 0 -1 0
vn 1 0 0
vn 0 -1 0
vn 0 0 1
vn 0 1 0
vn 0 0 -1
usemtl m_de1e4fe7-6251-caf7-26c2-8f7882d012c4
f 2/1/1 9/2/1 12/3/1 4/4/1
f 8/5/2 11/6/2 10/7/2 6/8/2
f 6/9/3 10/10/3 9/11/3 2/12/3
f 4/13/4 12/14/4 11/15/4 8/16/4
f 3/17/5 1/18/5 5/19/5 7/20/5
f 6/21/6 2/22/6 4/23/6 8/24/6
f 10/25/7 14/26/7 13/27/7 9/28/7
f 17/29/8 19/30/8 18/31/8 20/32/8
f 12/33/9 16/34/9 15/35/9 11/36/9
f 9/37/10 13/38/10 16/39/10 12/40/10
f 1/41/11 13/42/11 14/43/11 5/44/11
f 5/45/12 14/46/12 15/47/12 7/48/12
f 7/49/13 15/50/13 16/51/13 3/52/13
f 3/53/14 16/54/14 13/55/14 1/56/14
f 19/57/15 17/58/15 11/59/15 15/60/15
f 18/61/16 19/62/16 15/63/16 14/64/16
f 20/65/17 18/66/17 14/67/17 10/68/17
f 17/69/18 20/70/18 10/71/18 11/72/18
o cube
v 0.125 0.375 -0.1875
v 0.125 0.375 -0.3125
v 0.125 0.125 -0.1875
v 0.125 0.125 -0.3125
v 0 0.375 -0.1875
v 0 0.375 -0.3125
v 0 0.125 -0.1875
v 0 0.125 -0.3125
vt 0.234375 0.546875
vt 0.203125 0.546875
vt 0.203125 0.484375
vt 0.234375 0.484375
vt 0.5 0.5625
vt 0.5 0.625
vt 0.46875 0.625
vt 0.46875 0.5625
vt 0.46875 0.46875
vt 0.5 0.46875
vt 0.5 0.5
vt 0.46875 0.5
vt 0.234375 0.453125
vt 0.234375 0.484375
vt 0.203125 0.484375
vt 0.203125 0.453125
vt 0.5 0.5
vt 0.5 0.5625
vt 0.46875 0.5625
vt 0.46875 0.5
vt 0.0625 0.515625
vt 0.03125 0.515625
vt 0.03125 0.453125
vt 0.0625 0.453125
vn 1 0 0
vn -1 0 0
vn 0 1 0
vn 0 -1 0
vn 0 0 1
vn 0 0 -1
usemtl m_de1e4fe7-6251-caf7-26c2-8f7882d012c4
f 22/73/19 21/74/19 23/75/19 24/76/19
f 27/77/20 25/78/20 26/79/20 28/80/20
f 25/81/21 21/82/21 22/83/21 26/84/21
f 24/85/22 23/86/22 27/87/22 28/88/22
f 23/89/23 21/90/23 25/91/23 27/92/23
f 26/93/24 22/94/24 24/95/24 28/96/24
o cube
v 0.5 1.375 0.4375
v 0.5 1.375 -0.4375
v 0.5 0.5 0.4375
v 0.5 0.5 -0.4375
v 0.375 1.375 0.4375
v 0.375 1.375 -0.4375
v 0.375 0.5 0.4375
v 0.375 0.5 -0.4375
v 0.375 1.375 -0.2734375
v 0.375 0.5 -0.2734375
v 0.5 0.5 -0.2734375
v 0.5 1.375 -0.2734375
v 0.375 1.375 0.2734375
v 0.375 0.5 0.2734375
v 0.5 0.5 0.2734375
v 0.5 1.375 0.2734375
v 0.375 1.5625 -0.2734375
v 0.5 1.5625 0.2734375
v 0.375 1.5625 0.2734375
v 0.5 1.5625 -0.2734375
vt 0.21875 0.953125
vt 0.177734375 0.953125
vt 0.177734375 0.734375
vt 0.21875 0.734375
vt 0.21875 0.734375
vt 0.259765625 0.734375
vt 0.259765625 0.953125
vt 0.21875 0.953125
vt 0 1
vt 0 0.953125
vt 0.03125 0.953125
vt 0.03125 1
vt 0.4375 0.953125
vt 0.4375 1
vt 0.40625 1
vt 0.40625 0.953125
vt 0.4375 0.515625
vt 0.4375 0.734375
vt 0.40625 0.734375
vt 0.40625 0.515625
vt 0.46875 1
vt 0.4375 1
vt 0.4375 0.78125
vt 0.46875 0.78125
vt 0.259765625 0.734375
vt 0.396484375 0.734375
vt 0.396484375 0.953125
vt 0.259765625 0.953125
vt 0.46875 0.515625
vt 0.46875 0.65625
vt 0.4375 0.65625
vt 0.4375 0.515625
vt 0.177734375 0.953125
vt 0.041015625 0.953125
vt 0.041015625 0.734375
vt 0.177734375 0.734375
vt 0 0.546875
vt 0 0.40625
vt 0.03125 0.40625
vt 0.03125 0.546875
vt 0.4375 0.953125
vt 0.396484375 0.953125
vt 0.396484375 0.734375
vt 0.4375 0.734375
vt 0.375 0.515625
vt 0.375 0.46875
vt 0.40625 0.46875
vt 0.40625 0.515625
vt 0 0.734375
vt 0.041015625 0.734375
vt 0.041015625 0.953125
vt 0 0.953125
vt 0.4375 0.46875
vt 0.4375 0.515625
vt 0.40625 0.515625
vt 0.40625 0.46875
vt 0.396484375 1
vt 0.259765625 1
vt 0.259765625 0.953125
vt 0.396484375 0.953125
vt 0.46875 0.515625
vt 0.4375 0.515625
vt 0.4375 0.46875
vt 0.46875 0.46875
vt 0.177734375 1
vt 0.041015625 1
vt 0.041015625 0.953125
vt 0.177734375 0.953125
vt 0.53125 0.625
vt 0.5 0.625
vt 0.5 0.578125
vt 0.53125 0.578125
vn 1 0 0
vn -1 0 0
vn 0 1 0
vn 0 -1 0
vn 0 0 1
vn 0 0 -1
vn -1 0 0
vn 0 -1 0
vn 1 0 0
vn 0 1 0
vn -1 0 0
vn 0 -1 0
vn 1 0 0
vn 0 1 0
vn -1 0 0
vn 0 0 1
vn 1 0 0
vn 0 0 -1
usemtl m_de1e4fe7-6251-caf7-26c2-8f7882d012c4
f 30/97/25 40/98/25 39/99/25 32/100/25
f 36/101/26 38/102/26 37/103/26 34/104/26
f 34/105/27 37/106/27 40/107/27 30/108/27
f 32/109/28 39/110/28 38/111/28 36/112/28
f 31/113/29 29/114/29 33/115/29 35/116/29
f 34/117/30 30/118/30 32/119/30 36/120/30
f 38/121/31 42/122/31 41/123/31 37/124/31
f 39/125/32 43/126/32 42/127/32 38/128/32
f 40/129/33 44/130/33 43/131/33 39/132/33
f 45/133/34 47/134/34 46/135/34 48/136/34
f 33/137/35 41/138/35 42/139/35 35/140/35
f 35/141/36 42/142/36 43/143/36 31/144/36
f 31/145/37 43/146/37 44/147/37 29/148/37
f 29/149/38 44/150/38 41/151/38 33/152/38
f 47/153/39 45/154/39 37/155/39 41/156/39
f 46/157/40 47/158/40 41/159/40 44/160/40
f 48/161/41 46/162/41 44/163/41 40/164/41
f 45/165/42 48/166/42 40/167/42 37/168/42
o cube
v 0.5 0.25 -0.1875
v 0.5 0.25 -0.3125
v 0.5 0.125 -0.1875
v 0.5 0.125 -0.3125
v 0.125 0.25 -0.1875
v 0.125 0.25 -0.3125
v 0.125 0.125 -0.1875
v 0.125 0.125 -0.3125
vt 0.265625 0.484375
vt 0.234375 0.484375
vt 0.234375 0.453125
vt 0.265625 0.453125
vt 0.296875 0.453125
vt 0.296875 0.484375
vt 0.265625 0.484375
vt 0.265625 0.453125
vt 0.46875 0.96875
vt 0.5625 0.96875
vt 0.5625 1
vt 0.46875 1
vt 0.5625 0.9375
vt 0.5625 0.96875
vt 0.46875 0.96875
vt 0.46875 0.9375
vt 0.5625 0.90625
vt 0.5625 0.9375
vt 0.46875 0.9375
vt 0.46875 0.90625
vt 0.5625 0.90625
vt 0.46875 0.90625
vt 0.46875 0.875
vt 0.5625 0.875
vn 1 0 0
vn -1 0 0
vn 0 1 0
vn 0 -1 0
vn 0 0 1
vn 0 0 -1
usemtl m_de1e4fe7-6251-caf7-26c2-8f7882d012c4
f 50/169/43 49/170/43 51/171/43 52/172/43
f 55/173/44 53/174/44 54/175/44 56/176/44
f 53/177/45 49/178/45 50/179/45 54/180/45
f 52/181/46 51/182/46 55/183/46 56/184/46
f 51/185/47 49/186/47 53/187/47 55/188/47
f 54/189/48 50/190/48 52/191/48 56/192/48
o cube
v 0.125 0.375 0.3125
v 0.125 0.375 0.1875
v 0.125 0.125 0.3125
v 0.125 0.125 0.1875
v 0 0.375 0.3125
v 0 0.375 0.1875
v 0 0.125 0.3125
v 0 0.125 0.1875
vt 0.09375 0.515625
vt 0.0625 0.515625
vt 0.0625 0.453125
vt 0.09375 0.453125
vt 0.125 0.453125
vt 0.125 0.515625
vt 0.09375 0.515625
vt 0.09375 0.453125
vt 0.515625 0.515625
vt 0.546875 0.515625
vt 0.546875 0.546875
vt 0.515625 0.546875
vt 0.546875 0.484375
vt 0.546875 0.515625
vt 0.515625 0.515625
vt 0.515625 0.484375
vt 0.15625 0.453125
vt 0.15625 0.515625
vt 0.125 0.515625
vt 0.125 0.453125
vt 0.1875 0.515625
vt 0.15625 0.515625
vt 0.15625 0.453125
vt 0.1875 0.453125
vn 1 0 0
vn -1 0 0
vn 0 1 0
vn 0 -1 0
vn 0 0 1
vn 0 0 -1
usemtl m_de1e4fe7-6251-caf7-26c2-8f7882d012c4
f 58/193/49 57/194/49 59/195/49 60/196/49
f 63/197/50 61/198/50 62/199/50 64/200/50
f 61/201/51 57/202/51 58/203/51 62/204/51
f 60/205/52 59/206/52 63/207/52 64/208/52
f 59/209/53 57/210/53 61/211/53 63/212/53
f 62/213/54 58/214/54 60/215/54 64/216/54
o cube
v 0.5 0.25 0.3125
v 0.5 0.25 0.1875
v 0.5 0.125 0.3125
v 0.5 0.125 0.1875
v 0.125 0.25 0.3125
v 0.125 0.25 0.1875
v 0.125 0.125 0.3125
v 0.125 0.125 0.1875
vt 0.328125 0.484375
vt 0.296875 0.484375
vt 0.296875 0.453125
vt 0.328125 0.453125
vt 0.359375 0.453125
vt 0.359375 0.484375
vt 0.328125 0.484375
vt 0.328125 0.453125
vt 0.46875 0.84375
vt 0.5625 0.84375
vt 0.5625 0.875
vt 0.46875 0.875
vt 0.5625 0.8125
vt 0.5625 0.84375
vt 0.46875 0.84375
vt 0.46875 0.8125
vt 0.5625 0.78125
vt 0.5625 0.8125
vt 0.46875 0.8125
vt 0.46875 0.78125
vt 0.5625 0.65625
vt 0.46875 0.65625
vt 0.46875 0.625
vt 0.5625 0.625
vn 1 0 0
vn -1 0 0
vn 0 1 0
vn 0 -1 0
vn 0 0 1
vn 0 0 -1
usemtl m_de1e4fe7-6251-caf7-26c2-8f7882d012c4
f 66/217/55 65/218/55 67/219/55 68/220/55
f 71/221/56 69/222/56 70/223/56 72/224/56
f 69/225/57 65/226/57 66/227/57 70/228/57
f 68/229/58 67/230/58 71/231/58 72/232/58
f 67/233/59 65/234/59 69/235/59 71/236/59
f 70/237/60 66/238/60 68/239/60 72/240/60
o cube
v 0.09375 0.21875 0.1875
v 0.09375 0.21875 -0.1875
v 0.09375 0.15625 0.1875
v 0.09375 0.15625 -0.1875
v 0.03125 0.21875 0.1875
v 0.03125 0.21875 -0.1875
v 0.03125 0.15625 0.1875
v 0.03125 0.15625 -0.1875
vt 0.59375 0.578125
vt 0.5 0.578125
vt 0.5 0.5625
vt 0.59375 0.5625
vt 0.59375 0.546875
vt 0.59375 0.5625
vt 0.5 0.5625
vt 0.5 0.546875
vt 0.1875 0.421875
vt 0.203125 0.421875
vt 0.203125 0.515625
vt 0.1875 0.515625
vt 0.515625 0.453125
vt 0.515625 0.546875
vt 0.5 0.546875
vt 0.5 0.453125
vt 0.203125 0.953125
vt 0.203125 0.96875
vt 0.1875 0.96875
vt 0.1875 0.953125
vt 0.21875 0.96875
vt 0.203125 0.96875
vt 0.203125 0.953125
vt 0.21875 0.953125
vn 1 0 0
vn -1 0 0
vn 0 1 0
vn 0 -1 0
vn 0 0 1
vn 0 0 -1
usemtl m_de1e4fe7-6251-caf7-26c2-8f7882d012c4
f 74/241/61 73/242/61 75/243/61 76/244/61
f 79/245/62 77/246/62 78/247/62 80/248/62
f 77/249/63 73/250/63 74/251/63 78/252/63
f 76/253/64 75/254/64 79/255/64 80/256/64
f 75/257/65 73/258/65 77/259/65 79/260/65
f 78/261/66 74/262/66 76/263/66 80/264/66