# Made in Blockbench 4.6.4
mtllib Snack1.mtl

o cube
v 0.0625 0.03125 0.0625
v 0.0625 0.03125 -0.0625
v 0.0625 0 0.0625
v 0.0625 0 -0.0625
v -0.0625 0.03125 0.0625
v -0.0625 0.03125 -0.0625
v -0.0625 0 0.0625
v -0.0625 0 -0.0625
v 0.03125 0.03125 0.0625
v 0.03125 0.03125 -0.0625
v 0.03125 0 -0.0625
v 0.03125 0 0.0625
v -0.03125 0.03125 0.0625
v -0.03125 0.03125 -0.0625
v -0.03125 0 -0.0625
v -0.03125 0 0.0625
v -0.03125 0.03125 0.03125
v 0.03125 0.03125 0.03125
v 0.0625 0.03125 0.03125
v 0.0625 0 0.03125
v 0.03125 0 0.03125
v -0.03125 0 0.03125
v -0.0625 0 0.03125
v -0.0625 0.03125 0.03125
v -0.03125 0.03125 -0.03125
v 0.03125 0.03125 -0.03125
v 0.0625 0.03125 -0.03125
v 0.0625 0 -0.03125
v 0.03125 0 -0.03125
v -0.03125 0 -0.03125
v -0.0625 0 -0.03125
v -0.0625 0.03125 -0.03125
v -0.09375 0.03125 0.03125
v -0.09375 0 -0.03125
v -0.09375 0.03125 -0.03125
v -0.09375 0 0.03125
v 0.03125 0.03125 0.09375
v -0.03125 0 0.09375
v -0.03125 0.03125 0.09375
v 0.03125 0 0.09375
v 0.09375 0 0.03125
v 0.09375 0.03125 -0.03125
v 0.09375 0 -0.03125
v 0.09375 0.03125 0.03125
v 0.03125 0 -0.09375
v -0.03125 0.03125 -0.09375
v -0.03125 0 -0.09375
v 0.03125 0.03125 -0.09375
vt 0 0.5
vt 0.5 0.5
vt 0.5 1
vt 0 1
vt 1 1
vt 0.5 1
vt 0.5 0.5
vt 1 0.5
vt 1 0
vt 1 0.5
vt 0.5 0.5
vt 0.5 0
vt 0.5 1
vt 0.5 0.5
vt 1 0.5
vt 1 1
vt 1 1
vt 0.5 1
vt 0.5 0.5
vt 1 0.5
vt 0 0.5
vt 0.5 0.5
vt 0.5 1
vt 0 1
vt 0.5 0
vt 0.5 0.5
vt 0.25 0.5
vt 0.25 0
vt 0.5 0.5
vt 0.75 0.5
vt 0.75 1
vt 0.5 1
vt 0.25 1
vt 0.25 0.5
vt 0.5 0.5
vt 0.5 1
vt 0.5 1
vt 0.25 1
vt 0.25 0.5
vt 0.5 0.5
vt 0.25 0
vt 0.25 0.5
vt 0 0.5
vt 0 0
vt 1 1
vt 0.75 1
vt 0.75 0.5
vt 1 0.5
vt 0 1
vt 0 0.5
vt 0.25 0.5
vt 0.25 1
vt 0 0.5
vt 0.25 0.5
vt 0.25 1
vt 0 1
vt 0.5 0.5
vt 0.5 0.75
vt 0.25 0.75
vt 0.25 0.5
vt 1 0.5
vt 1 0.75
vt 0.5 0.75
vt 0.5 0.5
vt 0.5 0.5
vt 0.75 0.5
vt 0.75 1
vt 0.5 1
vt 0.5 0.5
vt 0.5 0.25
vt 1 0.25
vt 1 0.5
vt 0.25 0.5
vt 0.25 0.25
vt 0.5 0.25
vt 0.5 0.5
vt 0 0.5
vt 0 0.25
vt 0.25 0.25
vt 0.25 0.5
vt 0.5 1
vt 0.25 1
vt 0.25 0.5
vt 0.5 0.5
vt 0.25 0.5
vt 0.25 0.75
vt 0 0.75
vt 0 0.5
vt 0.25 1
vt 0.25 0.75
vt 0.5 0.75
vt 0.5 1
vt 0.5 1
vt 0.5 0.75
vt 1 0.75
vt 1 1
vt 1 1
vt 0.75 1
vt 0.75 0.5
vt 1 0.5
vt 1 0
vt 1 0.25
vt 0.5 0.25
vt 0.5 0
vt 0.5 0
vt 0.5 0.25
vt 0.25 0.25
vt 0.25 0
vt 0.25 0
vt 0.25 0.25
vt 0 0.25
vt 0 0
vt 0 0.5
vt 0.25 0.5
vt 0.25 1
vt 0 1
vt 0 1
vt 0 0.75
vt 0.25 0.75
vt 0.25 1
vt 0.1875 1
vt 0.1875 0.9375
vt 0.25 0.9375
vt 0.25 1
vt 0.1875 0.84375
vt 0.1875 0.875
vt 0.125 0.875
vt 0.125 0.84375
vt 0.1875 0.75
vt 0.1875 0.6875
vt 0.25 0.6875
vt 0.25 0.75
vt 0.25 0.875
vt 0.25 0.84375
vt 0.3125 0.84375
vt 0.3125 0.875
vt 0.1875 0.9375
vt 0.25 0.9375
vt 0.25 1
vt 0.1875 1
vt 0.1875 0.84375
vt 0.1875 0.875
vt 0.125 0.875
vt 0.125 0.84375
vt 0.25 0.75
vt 0.1875 0.75
vt 0.1875 0.6875
vt 0.25 0.6875
vt 0.25 0.875
vt 0.25 0.84375
vt 0.3125 0.84375
vt 0.3125 0.875
vt 0.375 0.6875
vt 0.375 0.75
vt 0.3125 0.75
vt 0.3125 0.6875
vt 0.375 0.875
vt 0.375 0.84375
vt 0.4375 0.84375
vt 0.4375 0.875
vt 0.375 0.9375
vt 0.375 1
vt 0.3125 1
vt 0.3125 0.9375
vt 0.3125 0.84375
vt 0.3125 0.875
vt 0.25 0.875
vt 0.25 0.84375
vt 0.3125 0.6875
vt 0.375 0.6875
vt 0.375 0.75
vt 0.3125 0.75
vt 0.375 0.875
vt 0.375 0.84375
vt 0.4375 0.84375
vt 0.4375 0.875
vt 0.375 1
vt 0.3125 1
vt 0.3125 0.9375
vt 0.375 0.9375
vt 0.3125 0.84375
vt 0.3125 0.875
vt 0.25 0.875
vt 0.25 0.84375
vn 1 0 0
vn -1 0 0
vn 0 1 0
vn 0 -1 0
vn 0 0 1
vn 0 0 -1
vn 0 1 0
vn 0 0 -1
vn 0 -1 0
vn 0 0 1
vn 0 1 0
vn 0 0 -1
vn 0 -1 0
vn 0 0 1
vn 0 1 0
vn 0 1 0
vn 1 0 0
vn 0 -1 0
vn 0 -1 0
vn 0 -1 0
vn -1 0 0
vn 0 1 0
vn 0 1 0
vn 0 1 0
vn 1 0 0
vn 0 -1 0
vn 0 -1 0
vn 0 -1 0
vn -1 0 0
vn 0 1 0
vn 0 1 0
vn 0 0 -1
vn 0 -1 0
vn 0 0 1
vn 0 1 0
vn -1 0 0
vn 0 -1 0
vn 1 0 0
vn 0 -1 0
vn 0 0 -1
vn 0 1 0
vn 0 0 1
vn 0 -1 0
vn -1 0 0
vn 0 1 0
vn 1 0 0
usemtl none
f 3/1/1 20/2/1 19/3/1 1/4/1
f 5/5/2 24/6/2 23/7/2 7/8/2
f 1/9/3 19/10/3 18/11/3 9/12/3
f 12/13/4 21/14/4 20/15/4 3/16/4
f 1/17/5 9/18/5 12/19/5 3/20/5
f 4/21/6 11/22/6 10/23/6 2/24/6
f 9/25/7 18/26/7 17/27/7 13/28/7
f 45/29/8 47/30/8 46/31/8 48/32/8
f 16/33/9 22/34/9 21/35/9 12/36/9
f 37/37/10 39/38/10 38/39/10 40/40/10
f 13/41/11 17/42/11 24/43/11 5/44/11
f 6/45/12 14/46/12 15/47/12 8/48/12
f 7/49/13 23/50/13 22/51/13 16/52/13
f 7/53/14 16/54/14 13/55/14 5/56/14
f 18/57/15 26/58/15 25/59/15 17/60/15
f 19/61/16 27/62/16 26/63/16 18/64/16
f 41/65/17 43/66/17 42/67/17 44/68/17
f 21/69/18 29/70/18 28/71/18 20/72/18
f 22/73/19 30/74/19 29/75/19 21/76/19
f 23/77/20 31/78/20 30/79/20 22/80/20
f 33/81/21 35/82/21 34/83/21 36/84/21
f 17/85/22 25/86/22 32/87/22 24/88/22
f 14/89/23 25/90/23 26/91/23 10/92/23
f 10/93/24 26/94/24 27/95/24 2/96/24
f 2/97/25 27/98/25 28/99/25 4/100/25
f 4/101/26 28/102/26 29/103/26 11/104/26
f 11/105/27 29/106/27 30/107/27 15/108/27
f 15/109/28 30/110/28 31/111/28 8/112/28
f 8/113/29 31/114/29 32/115/29 6/116/29
f 6/117/30 32/118/30 25/119/30 14/120/30
f 35/121/31 33/122/31 24/123/31 32/124/31
f 34/125/32 35/126/32 32/127/32 31/128/32
f 36/129/33 34/130/33 31/131/33 23/132/33
f 33/133/34 36/134/34 23/135/34 24/136/34
f 39/137/35 37/138/35 9/139/35 13/140/35
f 38/141/36 39/142/36 13/143/36 16/144/36
f 40/145/37 38/146/37 16/147/37 12/148/37
f 37/149/38 40/150/38 12/151/38 9/152/38
f 43/153/39 41/154/39 20/155/39 28/156/39
f 42/157/40 43/158/40 28/159/40 27/160/40
f 44/161/41 42/162/41 27/163/41 19/164/41
f 41/165/42 44/166/42 19/167/42 20/168/42
f 47/169/43 45/170/43 11/171/43 15/172/43
f 46/173/44 47/174/44 15/175/44 14/176/44
f 48/177/45 46/178/45 14/179/45 10/180/45
f 45/181/46 48/182/46 10/183/46 11/184/46