# Made in Blockbench 4.6.4
mtllib Snack3.mtl

o torus
v 0.050587567297406426 0.056543783648703216 0.08750000000000001
v 0.06323445912175804 0.03125 0.109375
v 0.050587567297406426 0.00595621635129678 0.08750000000000001
v 0.037940675473054825 0.031249999999999993 0.065625
v 0.10117513459481287 0.056543783648703216 6.186688892561956e-18
v 0.12646891824351608 0.03125 7.733361115702446e-18
v 0.10117513459481287 0.00595621635129678 6.186688892561956e-18
v 0.07588135094610965 0.031249999999999993 4.6400166694214676e-18
v 0.050587567297406426 0.056543783648703216 -0.08750000000000001
v 0.06323445912175804 0.03125 -0.109375
v 0.050587567297406426 0.00595621635129678 -0.08750000000000001
v 0.037940675473054825 0.031249999999999993 -0.065625
v -0.05058756729740645 0.056543783648703216 -0.0875
v -0.06323445912175805 0.03125 -0.10937499999999999
v -0.05058756729740645 0.00595621635129678 -0.0875
v -0.03794067547305484 0.031249999999999993 -0.06562499999999999
v -0.10117513459481287 0.056543783648703216 -1.856006667768587e-17
v -0.12646891824351608 0.03125 -2.3200083347107338e-17
v -0.10117513459481287 0.00595621635129678 -1.856006667768587e-17
v -0.07588135094610965 0.031249999999999993 -1.3920050008264403e-17
v -0.05058756729740648 0.056543783648703216 0.08749999999999997
v -0.0632344591217581 0.03125 0.10937499999999996
v -0.05058756729740648 0.00595621635129678 0.08749999999999997
v -0.03794067547305486 0.031249999999999993 0.06562499999999998
vt 0.036087499999999995 1
vt 0 0.904525
vt 0.36085 0.904525
vt 0.3247625 1
vt 0 1
vt 0.036087499999999995 0.904525
vt 0.3247625 0.904525
vt 0.36085 1
vt 0.288675 0.90453125
vt 0.25259375 1
vt 0.03608125000000001 1
vt 0 0.90453125
vt 0.25259375 0.90453125
vt 0.288675 1
vt 0 1
vt 0.03608125000000001 0.90453125
vt 0.036087499999999995 1
vt 0 0.904525
vt 0.36085 0.904525
vt 0.3247625 1
vt 0 1
vt 0.036087499999999995 0.904525
vt 0.3247625 0.904525
vt 0.36085 1
vt 0.288675 0.90453125
vt 0.25259375 1
vt 0.03608125000000001 1
vt 0 0.90453125
vt 0.25259375 0.90453125
vt 0.288675 1
vt 0 1
vt 0.03608125000000001 0.90453125
vt 0.036087499999999995 1
vt 0 0.904525
vt 0.36085 0.904525
vt 0.3247625 1
vt 0 1
vt 0.036087499999999995 0.904525
vt 0.3247625 0.904525
vt 0.36085 1
vt 0.288675 0.90453125
vt 0.25259375 1
vt 0.03608125000000001 1
vt 0 0.90453125
vt 0.25259375 0.90453125
vt 0.288675 1
vt 0 1
vt 0.03608125000000001 0.90453125
vt 0.036087499999999995 1
vt 0 0.904525
vt 0.36085 0.904525
vt 0.3247625 1
vt 0 1
vt 0.036087499999999995 0.904525
vt 0.3247625 0.904525
vt 0.36085 1
vt 0.288675 0.90453125
vt 0.25259375 1
vt 0.03608125000000001 1
vt 0 0.90453125
vt 0.25259375 0.90453125
vt 0.288675 1
vt 0 1
vt 0.03608125000000001 0.90453125
vt 0.036087499999999995 1
vt 0 0.904525
vt 0.36085 0.904525
vt 0.3247625 1
vt 0 1
vt 0.036087499999999995 0.904525
vt 0.3247625 0.904525
vt 0.36085 1
vt 0.288675 0.90453125
vt 0.25259375 1
vt 0.03608125000000001 1
vt 0 0.90453125
vt 0.25259375 0.90453125
vt 0.288675 1
vt 0 1
vt 0.03608125000000001 0.90453125
vt 0.036087499999999995 1
vt 0 0.904525
vt 0.36085 0.904525
vt 0.3247625 1
vt 0 1
vt 0.036087499999999995 0.904525
vt 0.3247625 0.904525
vt 0.36085 1
vt 0.288675 0.90453125
vt 0.25259375 1
vt 0.03608125000000001 1
vt 0 0.90453125
vt 0.25259375 0.90453125
vt 0.288675 1
vt 0 1
vt 0.03608125000000001 0.90453125
vn 0.6545251085273708 0.6545251085273709 0.3784095197196643
vn 0.6545251085273709 -0.6545251085273709 0.3784095197196643
vn -0.6545251085273709 -0.6545251085273708 -0.3784095197196642
vn -0.6545251085273709 0.6545251085273707 -0.37840951971966424
vn 0.6545251085273708 0.6545251085273708 -0.3784095197196642
vn 0.6545251085273709 -0.6545251085273708 -0.3784095197196642
vn -0.6545251085273708 -0.6545251085273709 0.3784095197196642
vn -0.6545251085273709 0.6545251085273707 0.3784095197196643
vn -7.690778200658705e-17 0.6541398759614061 -0.7563735999340514
vn -9.61347275082338e-17 -0.6541398759614061 -0.7563735999340513
vn 1.7090618223686006e-16 -0.6541398759614064 0.7563735999340511
vn 9.613472750823377e-17 0.6541398759614062 0.7563735999340512
vn -0.6545251085273709 0.6545251085273708 -0.3784095197196643
vn -0.6545251085273709 -0.6545251085273707 -0.3784095197196643
vn 0.6545251085273708 -0.654525108527371 0.37840951971966424
vn 0.6545251085273709 0.6545251085273708 0.37840951971966424
vn -0.6545251085273709 0.6545251085273709 0.378409519719664
vn -0.654525108527371 -0.6545251085273708 0.37840951971966397
vn 0.6545251085273708 -0.6545251085273709 -0.3784095197196641
vn 0.654525108527371 0.6545251085273709 -0.3784095197196641
vn -2.5635927335529e-16 0.6541398759614062 0.7563735999340512
vn -3.204490916941125e-16 -0.6541398759614062 0.7563735999340514
vn 2.5635927335529006e-16 -0.6541398759614063 -0.7563735999340513
vn 3.204490916941125e-16 0.6541398759614062 -0.7563735999340514
usemtl none
f 1/1/1 2/2/1 6/3/1 5/4/1
f 2/5/2 3/6/2 7/7/2 6/8/2
f 3/9/3 4/10/3 8/11/3 7/12/3
f 4/13/4 1/14/4 5/15/4 8/16/4
f 5/17/5 6/18/5 10/19/5 9/20/5
f 6/21/6 7/22/6 11/23/6 10/24/6
f 7/25/7 8/26/7 12/27/7 11/28/7
f 8/29/8 5/30/8 9/31/8 12/32/8
f 9/33/9 10/34/9 14/35/9 13/36/9
f 10/37/10 11/38/10 15/39/10 14/40/10
f 11/41/11 12/42/11 16/43/11 15/44/11
f 12/45/12 9/46/12 13/47/12 16/48/12
f 13/49/13 14/50/13 18/51/13 17/52/13
f 14/53/14 15/54/14 19/55/14 18/56/14
f 15/57/15 16/58/15 20/59/15 19/60/15
f 16/61/16 13/62/16 17/63/16 20/64/16
f 17/65/17 18/66/17 22/67/17 21/68/17
f 18/69/18 19/70/18 23/71/18 22/72/18
f 19/73/19 20/74/19 24/75/19 23/76/19
f 20/77/20 17/78/20 21/79/20 24/80/20
f 21/81/21 22/82/21 2/83/21 1/84/21
f 22/85/22 23/86/22 3/87/22 2/88/22
f 23/89/23 24/90/23 4/91/23 3/92/23
f 24/93/24 21/94/24 1/95/24 4/96/24