# Made in Blockbench 4.6.4
mtllib Snack1.mtl

o cube
v 0.0625 0.015625 0.0625
v 0.0625 0.015625 -0.0625
v 0.0625 -0.015625 0.0625
v 0.0625 -0.015625 -0.0625
v 0.0625 0.015625 -0.03125
v -0.0625 0.015625 -0.03125
v -0.0625 -0.015625 -0.03125
v 0.0625 -0.015625 -0.03125
v 0.0625 0.015625 0.03125
v -0.0625 0.015625 0.03125
v -0.0625 -0.015625 0.03125
v 0.0625 -0.015625 0.03125
v 0.03125 0.015625 0.03125
v 0.03125 0.015625 -0.03125
v 0.03125 0.015625 -0.0625
v 0.03125 -0.015625 -0.0625
v 0.03125 -0.015625 -0.03125
v 0.03125 -0.015625 0.03125
v 0.03125 -0.015625 0.0625
v 0.03125 0.015625 0.0625
v -0.03125 0.015625 0.03125
v -0.03125 0.015625 -0.03125
v -0.03125 0.015625 -0.0625
v -0.03125 -0.015625 -0.0625
v -0.03125 -0.015625 -0.03125
v -0.03125 -0.015625 0.03125
v -0.03125 -0.015625 0.0625
v -0.03125 0.015625 0.0625
v 0.03125 -0.015625 -0.09375
v 0.03125 0.015625 -0.09375
v 0.0625 -0.015625 -0.09375
v 0.0625 0.015625 -0.09375
v 0.03125 0.015625 0.09375
v 0.03125 -0.015625 0.09375
v 0.0625 0.015625 0.09375
v 0.0625 -0.015625 0.09375
v 0.09375 -0.015625 0.0625
v 0.09375 0.015625 0.0625
v 0.09375 -0.015625 0.03125
v 0.09375 0.015625 0.03125
v 0.09375 0.015625 -0.0625
v 0.09375 -0.015625 -0.0625
v 0.09375 -0.015625 -0.03125
v 0.09375 0.015625 -0.03125
v 0 0.015625 -0.03125
v 0 0.015625 0.03125
v 0 0.015625 0.0625
v 0 0.015625 0.09375
v 0 -0.015625 0.09375
v 0 -0.015625 0.0625
v 0 -0.015625 0.03125
v 0 -0.015625 -0.03125
v 0 -0.015625 -0.0625
v 0 -0.015625 -0.09375
v 0 0.015625 -0.09375
v 0 0.015625 -0.0625
v 0.03125 0.015625 0
v 0.0625 0.015625 0
v 0.0625 -0.015625 0
v 0.03125 -0.015625 0
v 0 -0.015625 0
v -0.03125 -0.015625 0
v -0.0625 -0.015625 0
v -0.0625 0.015625 0
v -0.03125 0.015625 0
v 0 0.015625 0
vt 0.0625 1
vt 0 1
vt 0 0.9375
vt 0.0625 0.9375
vt 0.0625 0.9375
vt 0 0.9375
vt 0 0.875
vt 0.0625 0.875
vt 0.125 1
vt 0.0625 1
vt 0.0625 0.9375
vt 0.125 0.9375
vt 0.0625 0.875
vt 0.125 0.875
vt 0.125 0.9375
vt 0.0625 0.9375
vt 0.0625 0.875
vt 0 0.875
vt 0 0.8125
vt 0.0625 0.8125
vt 0.1875 1
vt 0.125 1
vt 0.125 0.9375
vt 0.1875 0.9375
vt 0.0625 0.875
vt 0.0625 0.8125
vt 0.125 0.8125
vt 0.125 0.875
vt 0.1875 0.875
vt 0.1875 0.9375
vt 0.125 0.9375
vt 0.125 0.875
vt 0.1875 0.875
vt 0.125 0.875
vt 0.125 0.8125
vt 0.1875 0.8125
vt 0.0625 0.8125
vt 0 0.8125
vt 0 0.75
vt 0.0625 0.75
vt 0.1875 0.9375
vt 0.25 0.9375
vt 0.25 1
vt 0.1875 1
vt 0.125 0.75
vt 0.125 0.8125
vt 0.0625 0.8125
vt 0.0625 0.75
vt 0.1875 0.875
vt 0.25 0.875
vt 0.25 0.9375
vt 0.1875 0.9375
vt 0.125 0.75
vt 0.1875 0.75
vt 0.1875 0.8125
vt 0.125 0.8125
vt 0.1875 0.875
vt 0.1875 0.8125
vt 0.25 0.8125
vt 0.25 0.875
vt 0.1875 0.75
vt 0.25 0.75
vt 0.25 0.8125
vt 0.1875 0.8125
vt 0 0.6875
vt 0.0625 0.6875
vt 0.0625 0.75
vt 0 0.75
vt 0.3125 0.9375
vt 0.3125 1
vt 0.25 1
vt 0.25 0.9375
vt 0.0625 0.75
vt 0.0625 0.6875
vt 0.125 0.6875
vt 0.125 0.75
vt 0.46875 0.78125
vt 0.4375 0.78125
vt 0.46875 0.75
vt 0.4375 0.625
vt 0.375 0.625
vt 0.375 0.5625
vt 0.4375 0.5625
vt 0.25 0.53125
vt 0.28125 0.53125
vt 0.28125 0.5625
vt 0.46875 0.6875
vt 0.46875 0.71875
vt 0.4375 0.6875
vt 0.0625 0.5625
vt 0 0.5625
vt 0 0.5
vt 0.0625 0.5
vt 0.34375 0.5625
vt 0.3125 0.5625
vt 0.34375 0.53125
vt 0.25 0.875
vt 0.3125 0.875
vt 0.3125 0.9375
vt 0.25 0.9375
vt 0.1875 0.75
vt 0.125 0.75
vt 0.125 0.6875
vt 0.1875 0.6875
vt 0.25 0.8125
vt 0.3125 0.8125
vt 0.3125 0.875
vt 0.25 0.875
vt 0.25 0.75
vt 0.1875 0.75
vt 0.1875 0.6875
vt 0.25 0.6875
vt 0.3125 0.75
vt 0.3125 0.8125
vt 0.25 0.8125
vt 0.25 0.75
vt 0.3125 0.6875
vt 0.3125 0.75
vt 0.25 0.75
vt 0.25 0.6875
vt 0.0625 0.625
vt 0.0625 0.6875
vt 0 0.6875
vt 0 0.625
vt 0.375 0.9375
vt 0.375 1
vt 0.3125 1
vt 0.3125 0.9375
vt 0.125 0.625
vt 0.125 0.6875
vt 0.0625 0.6875
vt 0.0625 0.625
vt 0.375 0.9375
vt 0.3125 0.9375
vt 0.3125 0.875
vt 0.375 0.875
vt 0.1875 0.6875
vt 0.125 0.6875
vt 0.125 0.625
vt 0.1875 0.625
vt 0.375 0.875
vt 0.3125 0.875
vt 0.3125 0.8125
vt 0.375 0.8125
vt 0.25 0.6875
vt 0.1875 0.6875
vt 0.1875 0.625
vt 0.25 0.625
vt 0.375 0.8125
vt 0.3125 0.8125
vt 0.3125 0.75
vt 0.375 0.75
vt 0.25 0.6875
vt 0.25 0.625
vt 0.3125 0.625
vt 0.3125 0.6875
vt 0.375 0.75
vt 0.3125 0.75
vt 0.3125 0.6875
vt 0.375 0.6875
vt 0.375 0.6875
vt 0.3125 0.6875
vt 0.3125 0.625
vt 0.375 0.625
vt 0 0.5625
vt 0.0625 0.5625
vt 0.0625 0.625
vt 0 0.625
vt 0.4375 1
vt 0.375 1
vt 0.375 0.9375
vt 0.4375 0.9375
vt 0.125 0.625
vt 0.0625 0.625
vt 0.0625 0.5625
vt 0.125 0.5625
vt 0.46875 0.65625
vt 0.4375 0.65625
vt 0.46875 0.625
vt 0.4375 0.9375
vt 0.5 0.9375
vt 0.5 1
vt 0.4375 1
vt 0.40625 0.53125
vt 0.40625 0.5625
vt 0.375 0.53125
vt 0.4375 0.5625
vt 0.46875 0.5625
vt 0.46875 0.59375
vt 0.125 0.5625
vt 0.0625 0.5625
vt 0.0625 0.5
vt 0.125 0.5
vt 0.46875 0.53125
vt 0.46875 0.5625
vt 0.4375 0.5625
vt 0 0.4375
vt 0.03125 0.4375
vt 0 0.46875
vt 0.5 0.9375
vt 0.4375 0.9375
vt 0.4375 0.875
vt 0.5 0.875
vt 0.53125 1
vt 0.5 1
vt 0.5 0.96875
vt 0.0625 0.46875
vt 0.0625 0.4375
vt 0.09375 0.46875
vt 0.1875 0.5625
vt 0.125 0.5625
vt 0.125 0.5
vt 0.1875 0.5
vt 0.5 0.9375
vt 0.5 0.90625
vt 0.53125 0.90625
vt 0.375 0.9375
vt 0.375 0.875
vt 0.4375 0.875
vt 0.4375 0.9375
vt 0.1875 0.5625
vt 0.1875 0.625
vt 0.125 0.625
vt 0.125 0.5625
vt 0.4375 0.8125
vt 0.4375 0.875
vt 0.375 0.875
vt 0.375 0.8125
vt 0.25 0.5625
vt 0.25 0.625
vt 0.1875 0.625
vt 0.1875 0.5625
vt 0.4375 0.75
vt 0.4375 0.8125
vt 0.375 0.8125
vt 0.375 0.75
vt 0.25 0.5625
vt 0.3125 0.5625
vt 0.3125 0.625
vt 0.25 0.625
vt 0.375 0.75
vt 0.375 0.6875
vt 0.4375 0.6875
vt 0.4375 0.75
vt 0.3125 0.625
vt 0.3125 0.5625
vt 0.375 0.5625
vt 0.375 0.625
vt 0.375 0.6875
vt 0.375 0.625
vt 0.4375 0.625
vt 0.4375 0.6875
vt 0.125 0.46875
vt 0.125 0.4375
vt 0.15625 0.46875
vt 0.4375 0.8125
vt 0.5 0.8125
vt 0.5 0.875
vt 0.4375 0.875
vt 0.5 0.84375
vt 0.53125 0.84375
vt 0.5 0.875
vt 0.1875 0.46875
vt 0.1875 0.4375
vt 0.21875 0.4375
vt 0.1875 0.5
vt 0.25 0.5
vt 0.25 0.5625
vt 0.1875 0.5625
vt 0.5 0.8125
vt 0.5 0.78125
vt 0.53125 0.8125
vn 1 0 0
vn 0 -1 0
vn 0 0 1
vn 0 0 -1
vn 0 1 0
vn -1 0 0
vn 0 -1 0
vn 0 1 0
vn 0 1 0
vn 0 -1 0
vn 1 0 0
vn 0 1 0
vn 0 1 0
vn 0 -1 0
vn 0 -1 0
vn 0 -1 0
vn 0 1 0
vn 0 1 0
vn 0 -1 0
vn 0 -1 0
vn -0.7071067811865476 0 -0.7071067811865476
vn 0 1 0
vn 0 -1 0
vn -0.7071067811865476 0 0.7071067811865476
vn 0 1 0
vn 0 -1 0
vn 0 1 0
vn 0 1 0
vn 0 -1 0
vn 0 -1 0
vn 0 1 0
vn 0 1 0
vn 0 -1 0
vn 0 1 0
vn 0 1 0
vn 0 1 0
vn 0 0 1
vn 0 -1 0
vn 0 -1 0
vn 0 -1 0
vn 0 -1 0
vn 0 -1 0
vn 0 0 -1
vn 0 1 0
vn 0 1 0
vn 0 -1 0
vn -0.7071067811865476 0 -0.7071067811865476
vn 0 1 0
vn 0 -1 0
vn -0.7071067811865476 0 0.7071067811865476
vn 0 1 0
vn 0 -1 0
vn 0.7071067811865476 0 0.7071067811865476
vn 0 1 0
vn 0 -1 0
vn 0.7071067811865476 0 -0.7071067811865476
vn 0 1 0
vn 0 1 0
vn 0 -1 0
vn 0 -1 0
vn 0 -1 0
vn 0 -1 0
vn -1 0 0
vn 0 1 0
vn 0 1 0
vn 0 1 0
vn 0 -1 0
vn 0.7071067811865476 0 -0.7071067811865476
vn 0 1 0
vn 0 -1 0
vn 0.7071067811865476 0 0.7071067811865476
vn 0 1 0
usemtl m_d02bb7cf-59b1-2a42-4346-4520eb979845
f 41/1/1 44/2/1 43/3/1 42/4/1
f 8/5/2 17/6/2 16/7/2 4/8/2
f 35/9/3 33/10/3 34/11/3 36/12/3
f 31/13/4 29/14/4 30/15/4 32/16/4
f 2/17/5 15/18/5 14/19/5 5/20/5
f 10/21/6 64/22/6 63/23/6 11/24/6
f 18/25/7 60/26/7 59/27/7 12/28/7
f 9/29/8 58/30/8 57/31/8 13/32/8
f 9/33/9 13/34/9 20/35/9 1/36/9
f 3/37/10 19/38/10 18/39/10 12/40/10
f 37/41/11 39/42/11 40/43/11 38/44/11
f 46/45/12 66/46/12 65/47/12 21/48/12
f 22/49/13 45/50/13 56/51/13 23/52/13
f 24/53/14 53/54/14 52/55/14 25/56/14
f 26/57/15 62/58/15 61/59/15 51/60/15
f 26/61/16 51/62/16 50/63/16 27/64/16
f 28/65/17 47/66/17 46/67/17 21/68/17
f 21/69/18 65/70/18 64/71/18 10/72/18
f 11/73/19 63/74/19 62/75/19 26/76/19
f 25/77/20 7/78/20 24/79/20
f 6/80/21 23/81/21 24/82/21 7/83/21
f 6/84/22 22/85/22 23/86/22
f 26/87/23 27/88/23 11/89/23
f 28/90/24 10/91/24 11/92/24 27/93/24
f 21/94/25 10/95/25 28/96/25
f 29/97/26 31/98/26 4/99/26 16/100/26
f 32/101/27 30/102/27 15/103/27 2/104/27
f 33/105/28 35/106/28 1/107/28 20/108/28
f 36/109/29 34/110/29 19/111/29 3/112/29
f 39/113/30 37/114/30 3/115/30 12/116/30
f 38/117/31 40/118/31 9/119/31 1/120/31
f 44/121/32 41/122/32 2/123/32 5/124/32
f 42/125/33 43/126/33 8/127/33 4/128/33
f 13/129/34 57/130/34 66/131/34 46/132/34
f 13/133/35 46/134/35 47/135/35 20/136/35
f 20/137/36 47/138/36 48/139/36 33/140/36
f 33/141/37 48/142/37 49/143/37 34/144/37
f 34/145/38 49/146/38 50/147/38 19/148/38
f 19/149/39 50/150/39 51/151/39 18/152/39
f 51/153/40 61/154/40 60/155/40 18/156/40
f 17/157/41 52/158/41 53/159/41 16/160/41
f 16/161/42 53/162/42 54/163/42 29/164/42
f 29/165/43 54/166/43 55/167/43 30/168/43
f 30/169/44 55/170/44 56/171/44 15/172/44
f 15/173/45 56/174/45 45/175/45 14/176/45
f 53/177/46 24/178/46 54/179/46
f 54/180/47 24/181/47 23/182/47 55/183/47
f 56/184/48 55/185/48 23/186/48
f 27/187/49 50/188/49 49/189/49
f 48/190/50 28/191/50 27/192/50 49/193/50
f 48/194/51 47/195/51 28/196/51
f 3/197/52 37/198/52 36/199/52
f 38/200/53 35/201/53 36/202/53 37/203/53
f 38/204/54 1/205/54 35/206/54
f 4/207/55 31/208/55 42/209/55
f 32/210/56 41/211/56 42/212/56 31/213/56
f 32/214/57 2/215/57 41/216/57
f 14/217/58 57/218/58 58/219/58 5/220/58
f 8/221/59 59/222/59 60/223/59 17/224/59
f 17/225/60 60/226/60 61/227/60 52/228/60
f 52/229/61 61/230/61 62/231/61 25/232/61
f 25/233/62 62/234/62 63/235/62 7/236/62
f 7/237/63 63/238/63 64/239/63 6/240/63
f 6/241/64 64/242/64 65/243/64 22/244/64
f 22/245/65 65/246/65 66/247/65 45/248/65
f 45/249/66 66/250/66 57/251/66 14/252/66
f 12/253/67 59/254/67 39/255/67
f 39/256/68 59/257/68 58/258/68 40/259/68
f 9/260/69 40/261/69 58/262/69
f 59/263/70 8/264/70 43/265/70
f 59/266/71 43/267/71 44/268/71 58/269/71
f 5/270/72 58/271/72 44/272/72