# Made in Blockbench 4.6.4
mtllib TrashCan.mtl

o cylinder
v 0.1125248508502631 0.9449526783364428 0.12255891453380674
v 0.07005860134787185 0.7547103380181425 0.0654254284821341
v 0.0890695364796824 0.9245598941940402 0.20789643811262498
v 0.05325002818315047 0.7428139365168975 0.11753140923854694
v 0.02517374631183281 0.9557868115437238 0.15140999744294814
v 0.012177169540067794 0.7618893559109043 0.08454301144586268
v 0.04862906068241353 0.9761795956861264 0.0660724738641299
v 0.028985742704789156 0.7737857574121493 0.03243703068944986
v 0.13598016522084383 0.9653454624788453 0.03722139095498848
v 0.0868671745125932 0.7666067395193874 0.013319447725721282
v 0.19987595538869335 0.9341185451291617 0.09370783162466534
v 0.12794003315567587 0.7475313201253806 0.04630784551840552
v 0.1764206410181127 0.9137257609867592 0.17904535520348352
v 0.11113145999095454 0.7356349186241357 0.09841382627481834
vt 0.14815781249999999 0.65625
vt 0.136578125 0.67578125
vt 0.125 0.65625
vt 0.22852324905078414 1
vt 0.2306067699520151 0.9773911129171118
vt 0.28125 0.9860593952987318
vt 0.28004689852438147 1
vt 0.007671875 0.97265625
vt 0.0153453125 0.984375
vt 0 0.984375
vt 0.136578125 0.625
vt 0.14815781249999999 0.64453125
vt 0.125 0.64453125
vt 0.15625 0.7618612460580054
vt 0.171875 0.7597778509852123
vt 0.171875 0.8113046122739471
vt 0.1649160144939844 0.8125
vt 0.0153453125 0.81640625
vt 0.007671875 0.828125
vt 0 0.81640625
vt 0.421875 0.609375
vt 0.44503125 0.609375
vt 0.433453125 0.62890625
vt 0.28125 0.94906428871878
vt 0.296875 0.9473088515833842
vt 0.296875 0.9988368156093397
vt 0.2890400188020539 1
vt 0.18721875 0.984375
vt 0.171875 0.984375
vt 0.179546875 0.97265625
vt 0.125 0.61328125
vt 0.1365796875 0.59375
vt 0.14815781249999999 0.61328125
vt 0.1972731056662338 0.875
vt 0.19935662656746475 0.8523911129171118
vt 0.25 0.8610578393915621
vt 0.2487967551398311 0.875
vt 0.1795484375 1
vt 0.171875 0.98828125
vt 0.18722031249999999 0.98828125
vt 0.10532968749999999 0.56640625
vt 0.09375 0.546875
vt 0.1169078125 0.546875
vt 0.15625 0.6993613653168558
vt 0.171875 0.6972780331526066
vt 0.171875 0.7488063503495084
vt 0.16491742950160768 0.75
vt 0.015625 0.828125
vt 0.023298437499999998 0.81640625
vt 0.0309703125 0.828125
vt 0.44503125 0.59765625
vt 0.421875 0.59765625
vt 0.433453125 0.578125
vt 0.28125 0.8865658646303469
vt 0.296875 0.8848103744158091
vt 0.296875 0.9363367804381403
vt 0.28904001744054375 0.9375
vt 0.1875 0.83203125
vt 0.20284375 0.83203125
vt 0.195171875 0.84375
vn 0.20906461293484924 0.9365776754131707 0.28127254671592683
vn -0.7007727406612712 -0.1901447103143865 0.6875773084428753
vn -0.20906461293484924 -0.9365776754131707 -0.28127254671592683
vn 0.20906461293484924 0.9365776754131707 0.28127254671592683
vn -0.9633959689356627 0.13225541036631164 -0.233188150357933
vn -0.20906461293484924 -0.9365776754131707 -0.28127254671592683
vn 0.20906461293484924 0.9365776754131707 0.28127254671592683
vn -0.2875991953623034 0.18411112861566062 -0.9398881822572426
vn -0.20906461293484924 -0.9365776754131707 -0.28127254671592683
vn 0.20906461293484924 0.9365776754131707 0.28127254671592683
vn 0.6459160878997129 -0.05560475251019434 -0.7613806662180296
vn -0.20906461293484924 -0.9365776754131707 -0.28127254671592683
vn 0.20906461293484924 0.9365776754131707 0.28127254671592683
vn 0.9035474747613828 -0.40036756365642256 0.15266884038384793
vn -0.20906461293484924 -0.9365776754131707 -0.28127254671592683
vn 0.20906461293484924 0.9365776754131707 0.28127254671592683
vn 0.22401964262227714 -0.4689378569325172 0.8543491593341244
vn -0.20906461293484924 -0.9365776754131707 -0.28127254671592683
usemtl m_80b4f83e-3950-f21b-e57c-99af6638e57b
f 5/1/1 3/2/1 1/3/1
f 3/4/2 5/5/2 6/6/2 4/7/2
f 4/8/3 6/9/3 2/10/3
f 7/11/4 5/12/4 1/13/4
f 5/14/5 7/15/5 8/16/5 6/17/5
f 6/18/6 8/19/6 2/20/6
f 9/21/7 7/22/7 1/23/7
f 7/24/8 9/25/8 10/26/8 8/27/8
f 8/28/9 10/29/9 2/30/9
f 11/31/10 9/32/10 1/33/10
f 9/34/11 11/35/11 12/36/11 10/37/11
f 10/38/12 12/39/12 2/40/12
f 13/41/13 11/42/13 1/43/13
f 11/44/14 13/45/14 14/46/14 12/47/14
f 12/48/15 14/49/15 2/50/15
f 3/51/16 13/52/16 1/53/16
f 13/54/17 3/55/17 4/56/17 14/57/17
f 14/58/18 4/59/18 2/60/18
o cube
v 0.375 0.90625 -0.25
v -0.375 0.90625 -0.25
v -0.375 0 -0.25
v 0.375 0 -0.25
v 0.375 0.90625 0.25
v -0.375 0.90625 0.25
v -0.375 0 0.25
v 0.375 0 0.25
v 0.25 0.90625 0.25
v 0.25 0.90625 -0.25
v 0.25 0.90625 -0.375
v 0.25 0 -0.375
v 0.25 0 -0.25
v 0.25 0 0.25
v 0.25 0 0.375
v 0.25 0.90625 0.375
v -0.25 0.90625 0.25
v -0.25 0.90625 -0.25
v -0.25 0.90625 -0.375
v -0.25 0 -0.375
v -0.25 0 -0.25
v -0.25 0 0.25
v -0.25 0 0.375
v -0.25 0.90625 0.375
v 0.25 0.84375 -0.25
v -0.25 0.84375 0.25
v -0.25 0.84375 -0.25
v 0.25 0.84375 0.25
vt 0.171875 0.59375
vt 0.296875 0.59375
vt 0.296875 0.828125
vt 0.171875 0.828125
vt 0.1875 0.96875
vt 0.15625 0.96875
vt 0.15625 0.84375
vt 0.1875 0.84375
vt 0.125 0.8125
vt 0 0.8125
vt 0 0.578125
vt 0.125 0.578125
vt 0.21875 1
vt 0.1875 1
vt 0.1875 0.875
vt 0.21875 0.875
vt 0.25 0.59375
vt 0.125 0.59375
vt 0.125 0.46875
vt 0.25 0.46875
vt 0.546875 0.765625
vt 0.421875 0.765625
vt 0.421875 0.734375
vt 0.546875 0.734375
vt 0.296875 0.765625
vt 0.421875 0.765625
vt 0.421875 1
vt 0.296875 1
vt 0.15625 0.84375
vt 0.03125 0.84375
vt 0.03125 0.8125
vt 0.15625 0.8125
vt 0.15625 0.96875
vt 0.03125 0.96875
vt 0.03125 0.84375
vt 0.15625 0.84375
vt 0.15625 1
vt 0.03125 1
vt 0.03125 0.96875
vt 0.15625 0.96875
vt 0.421875 0.765625
vt 0.296875 0.765625
vt 0.296875 0.53125
vt 0.421875 0.53125
vt 0.546875 0.734375
vt 0.421875 0.734375
vt 0.421875 0.703125
vt 0.546875 0.703125
vt 0.125 0.6875
vt 0.15625 0.6875
vt 0.15625 0.8125
vt 0.125 0.8125
vt 0 0.84375
vt 0.03125 0.84375
vt 0.03125 0.96875
vt 0 0.96875
vt 0.03125 0.96875
vt 0.03125 1
vt 0 1
vt 0.296875 0.59375
vt 0.25 0.59375
vt 0.25 0.359375
vt 0.296875 0.359375
vt 0.25 0.9375
vt 0.25 0.96875
vt 0.21875 0.9375
vt 0.21875 0.90625
vt 0.25 0.90625
vt 0.25 0.9375
vt 0.046875 0.578125
vt 0 0.578125
vt 0 0.34375
vt 0.046875 0.34375
vt 0.25 0.90625
vt 0.21875 0.90625
vt 0.25 0.875
vt 0.25 0.96875
vt 0.25 0.9375
vt 0.28125 0.9375
vt 0.46875 1
vt 0.421875 1
vt 0.421875 0.765625
vt 0.46875 0.765625
vt 0.25 0.9375
vt 0.25 0.90625
vt 0.28125 0.9375
vt 0.25 0.90625
vt 0.25 0.875
vt 0.28125 0.90625
vt 0.09375 0.578125
vt 0.046875 0.578125
vt 0.046875 0.34375
vt 0.09375 0.34375
vt 0.25 0.875
vt 0.25 0.84375
vt 0.28125 0.84375
vt 0.421875 0.6875
vt 0.546875 0.6875
vt 0.546875 0.703125
vt 0.421875 0.703125
vt 0.421875 0.671875
vt 0.546875 0.671875
vt 0.546875 0.6875
vt 0.421875 0.6875
vt 0.421875 0.65625
vt 0.546875 0.65625
vt 0.546875 0.671875
vt 0.421875 0.671875
vt 0.421875 0.640625
vt 0.546875 0.640625
vt 0.546875 0.65625
vt 0.421875 0.65625
vn -1 0 0
vn 0 -1 0
vn 1 0 0
vn 0 1 0
vn 0 1 0
vn 0 1 0
vn 0 0 -1
vn 0 -1 0
vn 0 -1 0
vn 0 -1 0
vn 0 0 1
vn 0 1 0
vn 0 1 0
vn 0 -1 0
vn 0 -1 0
vn -0.7071067811865476 0 -0.7071067811865476
vn 0 1 0
vn 0 -1 0
vn -0.7071067811865476 0 0.7071067811865476
vn 0 1 0
vn 0 -1 0
vn 0.7071067811865476 0 0.7071067811865476
vn 0 1 0
vn 0 -1 0
vn 0.7071067811865476 0 -0.7071067811865476
vn 0 1 0
vn 0 0 1
vn 1 0 0
vn 0 0 -1
vn -1 0 0
usemtl m_80b4f83e-3950-f21b-e57c-99af6638e57b
f 17/61/19 21/62/19 20/63/19 16/64/19
f 22/65/20 28/66/20 27/67/20 18/68/20
f 15/69/21 19/70/21 22/71/21 18/72/21
f 15/73/22 24/74/22 23/75/22 19/76/22
f 39/77/23 41/78/23 40/79/23 42/80/23
f 25/81/24 33/82/24 32/83/24 24/84/24
f 26/85/25 34/86/25 33/87/25 25/88/25
f 27/89/26 35/90/26 34/91/26 26/92/26
f 28/93/27 36/94/27 35/95/27 27/96/27
f 29/97/28 37/98/28 36/99/28 28/100/28
f 30/101/29 38/102/29 37/103/29 29/104/29
f 23/105/30 31/106/30 38/107/30 30/108/30
f 20/109/31 31/110/31 32/111/31 16/112/31
f 17/113/32 35/114/32 36/115/32 21/116/32
f 34/117/33 35/118/33 17/119/33
f 16/120/34 33/121/34 34/122/34 17/123/34
f 32/124/35 33/125/35 16/126/35
f 21/127/36 36/128/36 37/129/36
f 38/130/37 20/131/37 21/132/37 37/133/37
f 31/134/38 20/135/38 38/136/38
f 29/137/39 28/138/39 22/139/39
f 19/140/40 30/141/40 29/142/40 22/143/40
f 23/144/41 30/145/41 19/146/41
f 27/147/42 26/148/42 18/149/42
f 25/150/43 15/151/43 18/152/43 26/153/43
f 25/154/44 24/155/44 15/156/44
f 41/157/45 39/158/45 24/159/45 32/160/45
f 40/161/46 41/162/46 32/163/46 31/164/46
f 42/165/47 40/166/47 31/167/47 23/168/47
f 39/169/48 42/170/48 23/171/48 24/172/48